<?xml version="1.0" encoding="UTF-8"?>
<svg version="1.1" xmlns="http://www.w3.org/2000/svg" width="454" height="527">
<path d="M0 0 C12.01402091 10.71061298 20.58349032 23.19000571 28.9128418 36.85253906 C36.85608902 49.78786046 45.55838795 61.95995563 56 73 C57.17248814 74.34912936 58.33938179 75.7031458 59.5 77.0625 C71.47007827 90.66486167 85.02005432 99.97813278 100.5625 109.0625 C126.22944312 124.07031497 145.22111328 139.32863463 153 169 C153.87575624 172.98686818 154.51666948 176.94789177 155 181 C155.11085938 181.87785156 155.22171875 182.75570312 155.3359375 183.66015625 C163.02625155 254.22398385 131.52667011 374.9934097 87.85546875 430.73046875 C87.24316406 431.47941406 86.63085938 432.22835938 86 433 C85.35675781 433.84175781 84.71351563 434.68351562 84.05078125 435.55078125 C55.3405585 472.72177691 7.71120114 490.98700988 -37.546875 497.11157227 C-94.40910229 504.32073791 -154.78874871 493.63765825 -201.04541016 458.54101562 C-263.06176592 409.6467816 -283.38199116 301.32606188 -294.7421875 221.3046875 C-298.03576041 192.7954363 -296.22454251 162.76838815 -279.125 138.625 C-278.10978706 137.39435725 -277.06597866 136.18694077 -276 135 C-275.01193359 133.85724609 -275.01193359 133.85724609 -274.00390625 132.69140625 C-265.10194345 123.06887985 -253.87262384 116.88453506 -242.6953125 110.25 C-241.59904541 109.59797607 -240.50277832 108.94595215 -239.37329102 108.27416992 C-237.22270545 106.99993093 -235.06718473 105.73397155 -232.90600586 104.4777832 C-215.40959401 94.16876941 -200.42509704 79.98902167 -188 64 C-187.49049805 63.34515625 -186.98099609 62.6903125 -186.45605469 62.015625 C-179.30214217 52.74219138 -172.83198639 43.27382674 -166.875 33.1875 C-161.37139144 23.89665989 -155.41509435 15.83068961 -148 8 C-147.35289062 7.26265625 -146.70578125 6.5253125 -146.0390625 5.765625 C-108.77648431 -34.91404551 -40.64807024 -33.92550478 0 0 Z " fill="#EB5D31" transform="translate(298,27)"/>
<path d="M0 0 C12.01402091 10.71061298 20.58349032 23.19000571 28.9128418 36.85253906 C36.85608902 49.78786046 45.55838795 61.95995563 56 73 C57.17248814 74.34912936 58.33938179 75.7031458 59.5 77.0625 C71.47007827 90.66486167 85.02005432 99.97813278 100.5625 109.0625 C126.22944312 124.07031497 145.22111328 139.32863463 153 169 C153.87575624 172.98686818 154.51666948 176.94789177 155 181 C155.11085938 181.87785156 155.22171875 182.75570312 155.3359375 183.66015625 C163.02625155 254.22398385 131.52667011 374.9934097 87.85546875 430.73046875 C87.24316406 431.47941406 86.63085938 432.22835938 86 433 C85.35675781 433.84175781 84.71351563 434.68351562 84.05078125 435.55078125 C55.3405585 472.72177691 7.71120114 490.98700988 -37.546875 497.11157227 C-94.40910229 504.32073791 -154.78874871 493.63765825 -201.04541016 458.54101562 C-263.06176592 409.6467816 -283.38199116 301.32606188 -294.7421875 221.3046875 C-298.03576041 192.7954363 -296.22454251 162.76838815 -279.125 138.625 C-278.10978706 137.39435725 -277.06597866 136.18694077 -276 135 C-275.01193359 133.85724609 -275.01193359 133.85724609 -274.00390625 132.69140625 C-265.10194345 123.06887985 -253.87262384 116.88453506 -242.6953125 110.25 C-241.59904541 109.59797607 -240.50277832 108.94595215 -239.37329102 108.27416992 C-237.22270545 106.99993093 -235.06718473 105.73397155 -232.90600586 104.4777832 C-215.40959401 94.16876941 -200.42509704 79.98902167 -188 64 C-187.49049805 63.34515625 -186.98099609 62.6903125 -186.45605469 62.015625 C-179.30214217 52.74219138 -172.83198639 43.27382674 -166.875 33.1875 C-161.37139144 23.89665989 -155.41509435 15.83068961 -148 8 C-147.35289062 7.26265625 -146.70578125 6.5253125 -146.0390625 5.765625 C-108.77648431 -34.91404551 -40.64807024 -33.92550478 0 0 Z M-135 18 C-135.85335937 18.77085938 -136.70671875 19.54171875 -137.5859375 20.3359375 C-146.28090161 28.60284184 -152.35878888 38.27661326 -158.54931641 48.43969727 C-169.10722082 65.74616383 -180.60320104 81.67547866 -195 96 C-195.84949219 96.84949219 -196.69898438 97.69898437 -197.57421875 98.57421875 C-206.795679 107.30793234 -217.74072941 113.74630157 -228.6875 120.0625 C-235.89944477 124.22773952 -242.49834146 128.77298273 -249 134 C-249.72445312 134.54785156 -250.44890625 135.09570312 -251.1953125 135.66015625 C-261.27152376 143.70136798 -267.1570321 154.91804927 -271 167 C-271.57041016 168.77117187 -271.57041016 168.77117187 -272.15234375 170.578125 C-278.9480991 192.92430986 -276.2344597 216.6102521 -272.5625 239.3125 C-272.45252686 239.99272217 -272.34255371 240.67294434 -272.22924805 241.3737793 C-271.31654647 246.71960284 -270.11043139 251.98356036 -268.87231445 257.26245117 C-268.07883399 260.66222513 -267.3050629 264.0655889 -266.53909302 267.47161865 C-259.8177722 297.35020909 -252.12662987 326.67226634 -242.15332031 355.64160156 C-241.10599495 358.69134915 -240.07694805 361.74646928 -239.0546875 364.8046875 C-235.65309487 374.89345947 -231.7921681 384.48791924 -227 394 C-226.63003906 394.75168457 -226.26007813 395.50336914 -225.87890625 396.27783203 C-208.17510327 432.14254438 -177.91650811 457.82556974 -139.98828125 470.734375 C-132.40199051 473.18338865 -124.78026615 475.26118982 -117 477 C-116.13455566 477.19899902 -115.26911133 477.39799805 -114.37744141 477.60302734 C-82.69398854 484.59480323 -44.87713182 484.24104372 -14 474 C-11.75101042 473.30920182 -9.50101115 472.62168204 -7.25 471.9375 C-6.17878906 471.60105469 -5.10757812 471.26460938 -4.00390625 470.91796875 C-2.18910092 470.36337935 -0.36504733 469.83649718 1.47265625 469.36328125 C30.34430841 461.79592 61.64823699 438.3208546 76.91845703 412.8828125 C80.43604712 406.7591884 83.70844253 400.50354537 86.88916016 394.19946289 C87.60875278 392.77466949 88.33707288 391.3542369 89.07568359 389.93920898 C91.47022167 385.30284283 93.32922628 380.62717882 95 375.6875 C95.52043153 374.18085073 96.04126428 372.67433999 96.5625 371.16796875 C96.81 370.44786621 97.0575 369.72776367 97.3125 368.98583984 C98.180036 366.47996705 99.08521527 363.9889768 100 361.5 C100.309375 360.64921875 100.61875 359.7984375 100.9375 358.921875 C101.51895189 357.32288229 102.10123654 355.72418796 102.6875 354.12695312 C105.82034541 345.5687374 108.63531039 337.06016326 110.8828125 328.21875 C111.70129983 325.04922307 112.60971085 321.91536611 113.5546875 318.78125 C119.96822893 297.50870247 125.01166015 275.92360379 129.17578125 254.1015625 C129.69539852 251.40817106 130.30449206 248.76539323 131.00390625 246.11328125 C134.76101652 231.34507292 135.29493419 215.97543821 135.3125 200.8125 C135.31590393 200.12052521 135.31930786 199.42855042 135.32281494 198.71560669 C135.35635912 186.82595988 134.73882108 175.03574707 130.3125 163.875 C129.9249353 162.87170654 129.9249353 162.87170654 129.52954102 161.84814453 C127.07468093 155.74357448 123.86472977 150.32556064 120 145 C119.278125 143.96875 118.55625 142.9375 117.8125 141.875 C111.46406254 134.73045624 102.82594861 129.78009638 94.625 125.0625 C72.41769403 112.27744728 52.63165183 95.3480985 37 75 C36.37641602 74.19103271 36.37641602 74.19103271 35.74023438 73.36572266 C28.83946055 64.35637905 22.72260478 54.94939205 16.71484375 45.328125 C11.17178159 36.46074783 5.17694533 28.61609409 -2 21 C-2.61359375 20.31035156 -3.2271875 19.62070312 -3.859375 18.91015625 C-15.9154173 5.90096531 -33.22152281 -1.39830794 -50 -6 C-50.6177832 -6.17724609 -51.23556641 -6.35449219 -51.87207031 -6.53710938 C-81.44944189 -12.97110393 -113.18712405 -1.70407828 -135 18 Z " fill="#EB5D32" transform="translate(298,27)"/>
<path d="M0 0 C12.19526896 -0.41835175 22.96789861 -0.40641585 34.46142578 4.09423828 C36.00830078 4.67238281 36.00830078 4.67238281 37.58642578 5.26220703 C64.23126761 15.76380923 79.99729613 34.34659795 94.65893555 58.07055664 C104.37161277 73.68779087 115.87506937 87.71652413 128.46142578 101.09423828 C129.44369141 102.15771484 129.44369141 102.15771484 130.44580078 103.24267578 C142.1395756 115.48615796 156.81767596 125.05174225 171.34399414 133.58520508 C190.82738917 145.03370222 201.46307205 158.804952 207.66455078 180.63720703 C209.69405217 189.44166159 209.74129996 198.21670509 209.77392578 207.21923828 C209.77687653 207.93622894 209.77982727 208.6532196 209.78286743 209.39193726 C209.79988233 227.75710406 207.9401774 246.03674441 203.28491211 263.84008789 C202.32872239 267.61863896 201.48817827 271.41799986 200.66455078 275.22705078 C200.3459019 276.69515756 200.0272163 278.16325636 199.70849609 279.63134766 C199.54595337 280.38053467 199.38341064 281.12972168 199.21594238 281.90161133 C196.61211849 293.86294701 193.90184086 305.77352176 190.71142578 317.59423828 C190.30778809 319.09301514 190.30778809 319.09301514 189.89599609 320.62207031 C188.2391371 326.62894839 186.3565239 332.53630352 184.35839844 338.43798828 C183.36096914 341.39172556 182.42814862 344.36071961 181.52392578 347.34423828 C181.19650391 348.41416016 180.86908203 349.48408203 180.53173828 350.58642578 C179.96953034 352.4289905 179.40750248 354.27161079 178.84716797 356.11474609 C178.20147518 358.23406856 177.5505249 360.35172523 176.89892578 362.46923828 C176.70113525 363.12311523 176.50334473 363.77699219 176.29956055 364.45068359 C174.9549749 368.80436875 173.27151697 372.91673836 171.46142578 377.09423828 C170.7180081 379.23517613 169.98905536 381.38118616 169.27392578 383.53173828 C166.35659378 391.76122707 162.55281888 399.39290014 158.46142578 407.09423828 C158.10000488 407.78372559 157.73858398 408.47321289 157.36621094 409.18359375 C152.56734855 418.28678737 147.47975588 426.48930149 140.46142578 434.09423828 C139.93838867 434.6649707 139.41535156 435.23570312 138.87646484 435.82373047 C122.48733 453.51580618 102.27679181 467.03526222 79.46142578 475.09423828 C78.43533203 475.48998047 77.40923828 475.88572266 76.35205078 476.29345703 C67.20190023 479.74028976 58.00518943 482.03821705 48.46142578 484.09423828 C47.08857422 484.40167969 47.08857422 484.40167969 45.68798828 484.71533203 C31.6712229 487.71892461 17.87458165 488.50035461 3.58642578 488.46923828 C2.68712341 488.46902679 1.78782104 488.46881531 0.86126709 488.46859741 C-13.94375209 488.43395484 -28.06581672 487.44253317 -42.53857422 484.09423828 C-43.87082031 483.78945557 -43.87082031 483.78945557 -45.22998047 483.47851562 C-80.57851956 475.18150028 -114.32554013 457.43791561 -136.53857422 428.09423828 C-137.11865234 427.35302734 -137.69873047 426.61181641 -138.29638672 425.84814453 C-143.95397966 418.25644424 -148.12145072 409.75298291 -152.39770508 401.33544922 C-153.12254666 399.91151475 -153.85670816 398.49225679 -154.60327148 397.07958984 C-157.29399598 391.91205054 -159.24181952 386.60933087 -161.10107422 381.09423828 C-161.68485466 379.38561259 -162.26948004 377.67727534 -162.85498047 375.96923828 C-163.13728516 375.14431885 -163.41958984 374.31939941 -163.71044922 373.46948242 C-164.6992012 370.63352487 -165.74831122 367.82387121 -166.81274414 365.015625 C-168.0493111 361.74223718 -169.23569395 358.45161957 -170.41357422 355.15673828 C-170.64431641 354.52445312 -170.87505859 353.89216797 -171.11279297 353.24072266 C-176.01535959 339.48994088 -179.6802242 325.2610333 -183.41357422 311.15673828 C-183.62723633 310.35161804 -183.84089844 309.5464978 -184.06103516 308.71697998 C-188.29361573 292.69111234 -191.70566869 276.55123933 -194.88452148 260.28881836 C-195.40106013 257.76589628 -195.9695654 255.28919413 -196.62841797 252.80126953 C-197.77807178 248.11877396 -198.45059478 243.4303625 -199.10107422 238.65673828 C-199.22675781 237.76664063 -199.35244141 236.87654297 -199.48193359 235.95947266 C-199.84749355 233.33930729 -200.19726421 230.71766543 -200.53857422 228.09423828 C-200.63936279 227.33312744 -200.74015137 226.5720166 -200.84399414 225.7878418 C-204.04176725 199.79054758 -200.76394201 171.7202307 -184.47607422 150.40673828 C-174.66342243 139.21316696 -162.30221611 132.01796517 -149.66635132 124.47689819 C-129.85656502 112.63844389 -114.24806993 98.65530056 -100.53857422 80.09423828 C-99.81951904 79.12574951 -99.81951904 79.12574951 -99.0859375 78.13769531 C-93.029861 69.92515241 -87.51283474 61.52145026 -82.35107422 52.71923828 C-77.94980759 45.23687277 -73.45222321 38.4919226 -67.53857422 32.09423828 C-66.77287109 31.24861328 -66.00716797 30.40298828 -65.21826172 29.53173828 C-47.94273176 11.31188675 -24.94731773 0.92610739 0 0 Z M-60.53857422 44.09423828 C-65.76126138 50.58268586 -69.83940941 57.87300785 -74.13330078 64.98876953 C-84.30447874 81.69411688 -96.17012838 96.85349628 -109.53857422 111.09423828 C-110.10962891 111.73103516 -110.68068359 112.36783203 -111.26904297 113.02392578 C-120.6295226 123.08223038 -133.03367054 130.10362101 -144.66357422 137.15673828 C-163.55096419 148.62845447 -178.6664904 159.34667023 -185.35107422 181.53173828 C-191.52709943 207.18040768 -187.62856012 237.09976313 -181.20654297 262.39111328 C-179.89511857 267.57328305 -178.69112065 272.77299662 -177.52294922 277.98876953 C-173.69149447 295.04489151 -169.71911609 311.89415908 -164.33837891 328.54101562 C-162.93962921 333.00625504 -161.72336216 337.52237525 -160.47607422 342.03173828 C-158.33202064 349.69375492 -155.80442409 357.10441919 -152.90966797 364.51220703 C-151.64897239 367.80581914 -150.53958611 371.10785733 -149.47607422 374.46923828 C-148.0169978 378.91171078 -146.2514442 382.95207437 -144.06982422 387.08251953 C-142.83093873 389.51920502 -141.68577479 391.95632126 -140.56982422 394.44970703 C-125.73393709 427.37642951 -99.76979394 449.55795804 -66.53857422 463.09423828 C-54.53831498 467.59871027 -42.22724765 471.20160002 -29.53857422 473.09423828 C-28.86955078 473.19575195 -28.20052734 473.29726563 -27.51123047 473.40185547 C20.26794692 480.34956154 71.7512741 471.48586084 111.35205078 443.01611328 C134.9930939 424.35213187 148.41981743 401.21907495 158.46142578 373.09423828 C158.95898344 371.75999162 159.4587174 370.42655283 159.96142578 369.09423828 C160.19216797 368.46904297 160.42291016 367.84384766 160.66064453 367.19970703 C161.26524929 365.6100389 161.8977685 364.03094827 162.54345703 362.45751953 C165.99729239 353.89420076 168.51272621 345.18753156 170.98876953 336.30126953 C172.24023657 331.82452327 173.60292223 327.39450498 175.02392578 322.96923828 C181.19618268 303.41930129 185.31221656 283.40191966 189.55102539 263.36474609 C190.12384283 260.66260707 190.71216918 257.9656409 191.3112793 255.26904297 C195.32876765 237.12490384 197.38554663 218.67718722 196.46142578 200.09423828 C196.40559326 198.92489746 196.40559326 198.92489746 196.34863281 197.73193359 C195.41878425 181.34888752 190.85844849 165.58388446 178.31298828 154.13330078 C173.8310752 150.69571696 169.04838126 147.83491392 164.20361328 144.94580078 C152.13907234 137.7507195 141.05445756 130.32511568 130.46142578 121.09423828 C129.68025391 120.44068359 128.89908203 119.78712891 128.09423828 119.11376953 C118.53783726 111.03496465 110.15861041 101.9369796 102.46142578 92.09423828 C101.65962891 91.08619141 100.85783203 90.07814453 100.03173828 89.03955078 C92.73391313 79.7884044 86.05121514 70.11936996 79.99658203 60.00830078 C74.62201563 51.06060956 68.89098088 43.4357394 61.46142578 36.09423828 C60.74599609 35.36849609 60.03056641 34.64275391 59.29345703 33.89501953 C49.48504006 24.52825736 37.6224044 18.19945695 24.46142578 15.09423828 C23.7958667 14.92126221 23.13030762 14.74828613 22.44458008 14.57006836 C-8.86024396 6.84657753 -39.74482241 20.71038756 -60.53857422 44.09423828 Z " fill="#FEF9F8" transform="translate(223.53857421875,19.90576171875)"/>
<path d="M0 0 C8.30470565 0.69337201 17.16214176 3.1035863 23.19921875 9.05078125 C26.47866228 13.01959729 27.9539683 16.48002592 27.5 21.625 C25.85 21.625 24.2 21.625 22.5 21.625 C22.314375 22.800625 22.314375 22.800625 22.125 24 C21.91875 25.19625 21.7125 26.3925 21.5 27.625 C21.38914062 28.44484375 21.27828125 29.2646875 21.1640625 30.109375 C20.09072228 36.95445039 20.09072228 36.95445039 17.1875 40.25 C14.23341984 41.76138985 12.76089527 42.1266762 9.5 41.625 C7.1875 40.625 7.1875 40.625 5.5 39.625 C6.61220605 42.35496031 7.7037661 43.81804157 9.875 45.875 C13.67909898 49.86024655 15.70132756 54.32881673 17.5 59.5 C18.77709242 62.2138214 19.75754826 62.50611778 22.5 63.625 C24.15960769 63.93617644 25.827487 64.20548981 27.5 64.4375 C31.12056081 65.11369297 32.25165295 65.3890703 35 68 C35.495 68.86625 35.99 69.7325 36.5 70.625 C36.9125 71.24375 37.325 71.8625 37.75 72.5 C38.82985792 75.55959743 38.62357258 78.41211296 38.5 81.625 C36.52 81.13 36.52 81.13 34.5 80.625 C34.17 79.305 33.84 77.985 33.5 76.625 C31.83388095 76.582279 30.16617115 76.58436168 28.5 76.625 C27.11857444 77.78877902 27.11857444 77.78877902 27.25 81 C27.28958311 86.44267812 28.90549964 91.46185596 30.5 96.625 C31.6446875 96.13 31.6446875 96.13 32.8125 95.625 C41.10978466 93.3748889 47.82992649 93.97863751 55.34375 98.19921875 C58.14718738 100.05294093 60.32446147 102.0655429 62.5 104.625 C63.221875 105.45 63.94375 106.275 64.6875 107.125 C69.64212672 113.9589679 69.17610711 121.54551999 68.5 129.625 C66.68897443 136.82794262 62.35854179 142.90334999 56.3125 147.16796875 C49.18510678 151.24566006 42.12331963 151.92626405 34.13671875 150.078125 C25.35542139 147.10141403 21.65041981 141.48697347 17.5 133.625 C15.20830368 128.52076728 15.33298226 124.13658549 15.5 118.625 C10.88 118.955 6.26 119.285 1.5 119.625 C1.5 117.975 1.5 116.325 1.5 114.625 C-0.27433812 115.55584971 -2.04435149 116.49494613 -3.8125 117.4375 C-4.79863281 117.95957031 -5.78476563 118.48164063 -6.80078125 119.01953125 C-10.27740892 121.08739517 -12.06335673 122.97756342 -14.3125 126.3125 C-16.5 128.625 -16.5 128.625 -19.75 128.9375 C-21.11125 128.7828125 -21.11125 128.7828125 -22.5 128.625 C-22.60957031 129.3571875 -22.71914062 130.089375 -22.83203125 130.84375 C-24.51192318 137.83838775 -29.66563893 143.65763448 -35.5 147.625 C-41.51579231 150.905134 -47.75195049 151.59303496 -54.5 150.625 C-63.94843256 147.77394236 -68.50160635 141.55784116 -73.4375 133.4375 C-75.54121364 125.88888046 -75.93332246 116.71034398 -72.60546875 109.4296875 C-68.50797975 102.74050051 -63.24427387 97.3529523 -55.578125 95.046875 C-47.15826155 93.33757941 -40.26113825 95.31987649 -32.5 98.625 C-32.5 97.965 -32.5 97.305 -32.5 96.625 C-30.025 95.635 -30.025 95.635 -27.5 94.625 C-27.5 93.305 -27.5 91.985 -27.5 90.625 C-28.469375 90.480625 -29.43875 90.33625 -30.4375 90.1875 C-33.5 89.625 -33.5 89.625 -34.5 88.625 C-34.54063832 86.95882885 -34.542721 85.29111905 -34.5 83.625 C-32.52 83.625 -30.54 83.625 -28.5 83.625 C-28.54640625 82.98175781 -28.5928125 82.33851563 -28.640625 81.67578125 C-29.22357058 67.08132218 -23.36876718 53.89086768 -13.8125 43.0625 C-7.90953455 36.69055975 -7.90953455 36.69055975 -3.8125 36.5 C-3.049375 36.54125 -2.28625 36.5825 -1.5 36.625 C-1.5 35.965 -1.5 35.305 -1.5 34.625 C-2.36625 34.439375 -2.36625 34.439375 -3.25 34.25 C-5.52335767 33.61851176 -7.4253529 32.73641809 -9.5 31.625 C-7.85 29.645 -6.2 27.665 -4.5 25.625 C-5.985 25.13 -5.985 25.13 -7.5 24.625 C-9.6875 23.0625 -9.6875 23.0625 -11.5 20.625 C-12.13981144 14.95809871 -11.59482836 11.53403809 -8.5 6.625 C-8.1596875 6.06296875 -7.819375 5.5009375 -7.46875 4.921875 C-5.24566051 1.70740776 -3.85417743 0.68824597 0 0 Z " fill="#FDF7F5" transform="translate(231.5,317.375)"/>
<path d="M0 0 C3.3 0 6.6 0 10 0 C9.88450858 2.33414239 9.75781807 4.66682919 9.625 7 C9.55539063 8.299375 9.48578125 9.59875 9.4140625 10.9375 C9.1389205 14.40871486 8.41437309 17.60753121 7.51269531 20.96386719 C6.628198 24.47658508 6.11877848 28.0483093 5.5625 31.625 C4.46886775 38.45420425 3.13210456 45.17130247 1.625 51.921875 C1.05579243 54.72522227 0.6612112 57.46827617 0.375 60.3125 C0 64 0 64 -1 65 C-2.97619447 65.12514928 -4.95738173 65.1757276 -6.9375 65.1875 C-8.01902344 65.20167969 -9.10054687 65.21585937 -10.21484375 65.23046875 C-13 65 -13 65 -15 63 C-15.48657227 60.80102539 -15.48657227 60.80102539 -15.81640625 58.09765625 C-15.94080078 57.12505859 -16.06519531 56.15246094 -16.19335938 55.15039062 C-16.31517578 54.13138672 -16.43699219 53.11238281 -16.5625 52.0625 C-16.81128628 50.05307234 -17.06248306 48.04394125 -17.31640625 46.03515625 C-17.42412354 45.1419165 -17.53184082 44.24867676 -17.64282227 43.32836914 C-17.95576408 40.85150168 -17.95576408 40.85150168 -19 38 C-20.32 46.58 -21.64 55.16 -23 64 C-27.29 64 -31.58 64 -36 64 C-38.37383553 61.62616447 -37.79427289 55.22347398 -38.07421875 51.84765625 C-38.52376221 47.0550658 -39.30627904 42.52263602 -40.46484375 37.84765625 C-42.27250836 30.34662062 -43.00449926 22.85476407 -43.6875 15.1875 C-43.81755748 13.80135682 -43.94841302 12.41528828 -44.08007812 11.02929688 C-44.39452511 7.68684187 -44.70102263 4.34386802 -45 1 C-41.37 1 -37.74 1 -34 1 C-32.72490883 11.98748775 -31.59744568 22.97514119 -30.69775391 34.00048828 C-30.62089355 34.89880371 -30.5440332 35.79711914 -30.46484375 36.72265625 C-30.399021 37.52453369 -30.33319824 38.32641113 -30.26538086 39.15258789 C-30.18643988 41.01335287 -30.18643988 41.01335287 -29 42 C-27.38217798 34.80814447 -26.49466332 27.71986599 -25.9375 20.375 C-25.42415969 13.89248765 -24.86507991 7.44599363 -24 1 C-20.37 1 -16.74 1 -13 1 C-11.63261403 9.30198626 -10.56293739 17.55899699 -9.78564453 25.93481445 C-9.19256979 32.02583478 -8.16376649 37.99332662 -7 44 C-3.8747274 25.00287865 -3.8747274 25.00287865 -1.39453125 5.9140625 C-1 3 -1 3 0 0 Z " fill="#FDF6F3" transform="translate(126,211)"/>
<path d="M0 0 C4.91806728 1.0780546 8.64485129 4.29946165 11.4765625 8.37109375 C17.69523071 20.02533861 18.07405427 34.98772445 14.53125 47.53515625 C12.17384534 54.12422722 9.10694932 59.91020684 3.78125 64.53515625 C0.16216049 65.82768822 -3.09481858 66.26654761 -6.84375 65.47265625 C-11.4864276 62.84943931 -15.09285935 58.74779073 -16.7578125 53.703125 C-20.29288044 38.57225729 -22.6676421 23.09516767 -14.3828125 8.984375 C-10.52776776 3.6323205 -7.06855065 -0.30331467 0 0 Z " fill="#FDF6F3" transform="translate(209.84375,130.52734375)"/>
<path d="M0 0 C1.99440863 0.96041425 3.76006283 2.0150771 5.57421875 3.28125 C6.64671875 4.02375 7.71921875 4.76625 8.82421875 5.53125 C14.06315847 10.77018972 15.81573151 15.28399152 16.13671875 22.71875 C15.88527861 29.96022591 13.82396102 34.76905824 8.9296875 40.05859375 C3.0592335 45.47849371 -2.94941118 47.86132084 -10.94140625 47.55859375 C-18.75492281 46.68633011 -23.45488635 43.25423512 -28.42578125 37.28125 C-32.91888234 30.84113844 -33.392545 23.97744772 -32.42578125 16.28125 C-27.46136674 2.71437677 -13.87285295 -4.11047495 0 0 Z " fill="#FEFCFB" transform="translate(236.42578125,66.71875)"/>
<path d="M0 0 C4.11640697 3.99879534 5.38211851 6.76700559 5.5625 12.5 C5.24990542 21.14844993 2.10431458 25.66148054 -3.97265625 31.5234375 C-6.8125 33.125 -6.8125 33.125 -16.8125 34.125 C-16.8125 42.045 -16.8125 49.965 -16.8125 58.125 C-20.1125 58.125 -23.4125 58.125 -26.8125 58.125 C-26.95201531 37.43165968 -26.61894761 16.8030888 -25.8125 -3.875 C-15.84219533 -5.35917501 -8.55622752 -5.70415168 0 0 Z " fill="#FEF9F7" transform="translate(260.8125,136.875)"/>
<path d="M0 0 C2.57161458 0.03255208 5.14322917 0.06510417 7.71484375 0.09765625 C8.04484375 6.03765625 8.37484375 11.97765625 8.71484375 18.09765625 C9.56369141 16.27427734 9.56369141 16.27427734 10.4296875 14.4140625 C11.17045911 12.82937388 11.91135072 11.24474135 12.65234375 9.66015625 C13.02552734 8.85771484 13.39871094 8.05527344 13.78320312 7.22851562 C14.14091797 6.46474609 14.49863281 5.70097656 14.8671875 4.9140625 C15.19710693 4.20709229 15.52702637 3.50012207 15.86694336 2.77172852 C16.71484375 1.09765625 16.71484375 1.09765625 17.71484375 0.09765625 C19.23412413 0.02585661 20.75651857 0.01373618 22.27734375 0.03515625 C23.10363281 0.04417969 23.92992187 0.05320313 24.78125 0.0625 C25.41933594 0.07410156 26.05742187 0.08570313 26.71484375 0.09765625 C26.12101303 3.77050337 25.09555442 6.66685981 23.39453125 9.96875 C22.94207031 10.87302734 22.48960937 11.77730469 22.0234375 12.70898438 C21.06767729 14.59316015 20.10411852 16.47340029 19.1328125 18.34960938 C18.45798828 19.70795898 18.45798828 19.70795898 17.76953125 21.09375 C17.35171387 21.91029053 16.93389648 22.72683105 16.50341797 23.56811523 C14.91621068 28.65946344 17.03908609 33.39317983 18.78125 38.23046875 C19.18408203 39.36613281 19.58691406 40.50179687 20.00195312 41.671875 C20.85514546 44.04722519 21.70931895 46.42222319 22.56445312 48.796875 C22.96599609 49.92996094 23.36753906 51.06304687 23.78125 52.23046875 C24.15193604 53.26059082 24.52262207 54.29071289 24.90454102 55.35205078 C25.71484375 58.09765625 25.71484375 58.09765625 25.71484375 62.09765625 C22.41484375 62.09765625 19.11484375 62.09765625 15.71484375 62.09765625 C13.5585381 55.73655459 11.54128483 49.34249792 9.58203125 42.91796875 C8.98321228 40.97045839 8.35915584 39.03059253 7.71484375 37.09765625 C7.38484375 45.34765625 7.05484375 53.59765625 6.71484375 62.09765625 C3.41484375 62.09765625 0.11484375 62.09765625 -3.28515625 62.09765625 C-3.30828389 54.16151838 -3.32607348 46.22539449 -3.33696842 38.2892313 C-3.34219633 34.60451127 -3.3492923 30.91981422 -3.3605957 27.23510742 C-3.37142787 23.68194794 -3.37743378 20.12881062 -3.38003349 16.57563591 C-3.38188715 15.21719959 -3.38550663 13.85876454 -3.39088631 12.5003376 C-3.398101 10.60383402 -3.39856434 8.70730832 -3.39868164 6.81079102 C-3.40090225 5.72935318 -3.40312286 4.64791534 -3.40541077 3.53370667 C-3.24806055 0.34619177 -3.18234177 0.13599751 0 0 Z " fill="#FDF7F5" transform="translate(275.28515625,211.90234375)"/>
<path d="M0 0 C5.00574819 2.33647803 8.04937775 5.55966326 11.0625 10.125 C12.76822457 17.17532824 13.73037852 24.92826953 9.9375 31.4375 C8.52734375 33.27734375 8.52734375 33.27734375 7 35 C6.52691406 35.59941406 6.05382812 36.19882812 5.56640625 36.81640625 C1.98840205 40.66209156 -1.164824 41.48281149 -6.375 41.75 C-12.95570141 41.43194539 -17.24416482 39.51958419 -22 35 C-26.8564132 29.48073374 -27.3404048 23.86763885 -27.29296875 16.76171875 C-26.85428048 12.62635061 -25.39083573 10.3752975 -23 7 C-22.34 6.01 -21.68 5.02 -21 4 C-16.42039848 5.52653384 -15.53187548 8.99376924 -13.36328125 13.12109375 C-11.8060097 16.40965861 -10.78726041 19.45732818 -10 23 C-8.35 23 -6.7 23 -5 23 C-4.67 21.35 -4.34 19.7 -4 18 C-4.57234375 17.8040625 -5.1446875 17.608125 -5.734375 17.40625 C-8.90646883 15.43736418 -10.40760996 12.64571039 -12.25 9.5 C-12.79527344 8.60861328 -12.79527344 8.60861328 -13.3515625 7.69921875 C-16 3.28847509 -16 3.28847509 -16 1 C-11.24760609 -1.37619696 -5.12636258 -0.66697836 0 0 Z " fill="#EB6137" transform="translate(281,420)"/>
<path d="M0 0 C4.66762732 2.96484482 7.48800274 6.85337403 9.0703125 12.15625 C8.8203125 15.15625 8.8203125 15.15625 8.0703125 17.15625 C5.1003125 17.81625 2.1303125 18.47625 -0.9296875 19.15625 C-1.5896875 16.84625 -2.2496875 14.53625 -2.9296875 12.15625 C-5.32688182 11.47666397 -5.32688182 11.47666397 -7.9296875 11.15625 C-10.22071263 13.01946004 -10.22071263 13.01946004 -10.1796875 15.96875 C-9.92359095 19.23398097 -9.5789763 21.32889776 -7.9296875 24.15625 C-6.26983952 24.83971682 -4.60188115 25.50357043 -2.9296875 26.15625 C-1.1675435 27.22885939 0.56215698 28.35634799 2.2578125 29.53125 C3.11761719 30.11648437 3.97742188 30.70171875 4.86328125 31.3046875 C8.21285619 34.11477338 8.93487589 35.99862336 9.44140625 40.328125 C9.58258289 47.93505452 9.36503854 53.4076903 4.0703125 59.15625 C-0.38149891 63.21525452 -4.68656061 63.46063593 -10.4921875 63.359375 C-13.84269448 63.08016609 -15.46634495 62.47469004 -17.9296875 60.15625 C-21.09650847 55.37370404 -22.4569098 50.82958234 -22.9296875 45.15625 C-19.09643133 42.45042212 -16.60430601 41.83011382 -11.9296875 42.15625 C-11.79691406 42.79433594 -11.66414063 43.43242187 -11.52734375 44.08984375 C-11.35074219 44.91613281 -11.17414063 45.74242187 -10.9921875 46.59375 C-10.81816406 47.41746094 -10.64414062 48.24117188 -10.46484375 49.08984375 C-10.12215756 51.13286204 -10.12215756 51.13286204 -8.9296875 52.15625 C-6.47176721 52.48968551 -6.47176721 52.48968551 -3.9296875 52.15625 C-1.57181048 48.61943447 -1.26498693 46.59624673 -1.359375 42.4296875 C-2.46074163 38.03930821 -6.26351473 36.38458591 -9.9296875 34.15625 C-11.38067654 33.15468235 -12.81882474 32.13420441 -14.2421875 31.09375 C-14.87769531 30.64902344 -15.51320313 30.20429688 -16.16796875 29.74609375 C-19.29930933 26.92024981 -20.74620409 24.26710692 -21.43359375 20.10546875 C-21.55548908 13.31996188 -21.22232564 8.82399004 -16.56640625 3.6796875 C-11.70995429 -0.84063771 -6.35489462 -2.77865838 0 0 Z " fill="#FDF7F5" transform="translate(365.9296875,211.84375)"/>
<path d="M0 0 C1.20970459 0.00523682 2.41940918 0.01047363 3.66577148 0.01586914 C4.97094727 0.0190918 6.27612305 0.02231445 7.62084961 0.02563477 C9.00952213 0.03399138 10.39819401 0.04245634 11.78686523 0.05102539 C13.17944179 0.05603873 14.57202005 0.06060193 15.96459961 0.06469727 C19.38456394 0.07653105 22.80444367 0.09301659 26.22436523 0.11352539 C26.34936523 6.86352539 26.34936523 6.86352539 25.22436523 9.11352539 C19.28436523 9.11352539 13.34436523 9.11352539 7.22436523 9.11352539 C7.22436523 14.39352539 7.22436523 19.67352539 7.22436523 25.11352539 C10.41092773 25.08258789 10.41092773 25.08258789 13.66186523 25.05102539 C15.84936134 25.02978756 18.0379707 25.04093593 20.22436523 25.11352539 C21.22436523 26.11352539 21.22436523 26.11352539 21.32202148 27.96118164 C21.2894694 30.01196289 21.25691732 32.06274414 21.22436523 34.11352539 C16.27436523 34.11352539 11.32436523 34.11352539 6.22436523 34.11352539 C6.22436523 40.71352539 6.22436523 47.31352539 6.22436523 54.11352539 C12.10319526 54.0739477 12.10319526 54.0739477 17.98193359 54.0234375 C18.71033447 54.02093994 19.43873535 54.01844238 20.18920898 54.01586914 C20.93807373 54.01063232 21.68693848 54.00539551 22.45849609 54 C24.22436523 54.11352539 24.22436523 54.11352539 25.22436523 55.11352539 C25.26529461 57.44649972 25.26678247 59.78057764 25.22436523 62.11352539 C21.98684846 63.19269765 19.64684752 63.2277814 16.24389648 63.21118164 C15.08051758 63.20795898 13.91713867 63.20473633 12.71850586 63.20141602 C11.50356445 63.19303711 10.28862305 63.1846582 9.03686523 63.17602539 C7.81032227 63.17151367 6.5837793 63.16700195 5.32006836 63.16235352 C2.28811855 63.15055605 -0.74373383 63.1340946 -3.77563477 63.11352539 C-3.79876213 55.04700365 -3.81655186 46.98049567 -3.82744694 38.91394901 C-3.83267491 35.16869502 -3.83977098 31.42346363 -3.85107422 27.67822266 C-3.86190617 24.06670852 -3.86791225 20.45521618 -3.87051201 16.84368706 C-3.8723657 15.4629221 -3.87598526 14.08215839 -3.88136482 12.70140266 C-3.88857923 10.77376587 -3.88904285 8.84610732 -3.88916016 6.91845703 C-3.89138077 5.8192543 -3.89360138 4.72005157 -3.89588928 3.58753967 C-3.72515848 0.07506922 -3.5438917 0.14494763 0 0 Z " fill="#FDF4F1" transform="translate(238.775634765625,211.886474609375)"/>
<path d="M0 0 C1.16781006 0.00523682 2.33562012 0.01047363 3.53881836 0.01586914 C4.79887695 0.0190918 6.05893555 0.02231445 7.35717773 0.02563477 C8.6976732 0.03399136 10.03816799 0.04245632 11.37866211 0.05102539 C12.72306153 0.05603879 14.06746271 0.06060197 15.41186523 0.06469727 C18.71334151 0.07653051 22.01473014 0.09301568 25.31616211 0.11352539 C25.41381836 6.26586914 25.41381836 6.26586914 25.31616211 8.11352539 C24.31616211 9.11352539 24.31616211 9.11352539 20.49975586 9.21118164 C18.91769529 9.20450628 17.33565052 9.19254415 15.75366211 9.17602539 C14.94735352 9.17151367 14.14104492 9.16700195 13.31030273 9.16235352 C11.31222455 9.15053057 9.31418428 9.13259453 7.31616211 9.11352539 C7.31616211 14.39352539 7.31616211 19.67352539 7.31616211 25.11352539 C11.60616211 25.11352539 15.89616211 25.11352539 20.31616211 25.11352539 C20.31616211 28.08352539 20.31616211 31.05352539 20.31616211 34.11352539 C15.69616211 34.11352539 11.07616211 34.11352539 6.31616211 34.11352539 C6.31616211 40.71352539 6.31616211 47.31352539 6.31616211 54.11352539 C12.25616211 54.11352539 18.19616211 54.11352539 24.31616211 54.11352539 C24.31616211 56.75352539 24.31616211 59.39352539 24.31616211 62.11352539 C23.31616211 63.11352539 23.31616211 63.11352539 20.72412109 63.22705078 C19.59820557 63.22181396 18.47229004 63.21657715 17.31225586 63.21118164 C16.09731445 63.20795898 14.88237305 63.20473633 13.63061523 63.20141602 C12.3512207 63.19303711 11.07182617 63.1846582 9.75366211 63.17602539 C8.47040039 63.17151367 7.18713867 63.16700195 5.86499023 63.16235352 C2.68200189 63.15052085 -0.50089551 63.13403607 -3.68383789 63.11352539 C-3.70696526 55.04700365 -3.72475498 46.98049567 -3.73565006 38.91394901 C-3.74087803 35.16869502 -3.74797411 31.42346363 -3.75927734 27.67822266 C-3.7701093 24.06670852 -3.77611538 20.45521618 -3.77871513 16.84368706 C-3.78056883 15.4629221 -3.78418838 14.08215839 -3.78956795 12.70140266 C-3.79678236 10.77376587 -3.79724598 8.84610732 -3.79736328 6.91845703 C-3.79958389 5.8192543 -3.8018045 4.72005157 -3.80409241 3.58753967 C-3.63591792 0.12766052 -3.4805994 0.14722812 0 0 Z " fill="#FDF6F4" transform="translate(312.683837890625,211.886474609375)"/>
<path d="M0 0 C1.16781006 0.00523682 2.33562012 0.01047363 3.53881836 0.01586914 C4.79887695 0.0190918 6.05893555 0.02231445 7.35717773 0.02563477 C8.6976732 0.03399136 10.03816799 0.04245632 11.37866211 0.05102539 C12.72306153 0.05603879 14.06746271 0.06060197 15.41186523 0.06469727 C18.71334151 0.07653051 22.01473014 0.09301568 25.31616211 0.11352539 C25.41381836 6.26586914 25.41381836 6.26586914 25.31616211 8.11352539 C24.31616211 9.11352539 24.31616211 9.11352539 22.55029297 9.22705078 C21.80142822 9.22181396 21.05256348 9.21657715 20.28100586 9.21118164 C19.47211914 9.20795898 18.66323242 9.20473633 17.82983398 9.20141602 C16.97969727 9.19303711 16.12956055 9.1846582 15.25366211 9.17602539 C14.3996582 9.17151367 13.5456543 9.16700195 12.66577148 9.16235352 C10.54920547 9.15052912 8.43267526 9.13259308 6.31616211 9.11352539 C6.31616211 14.39352539 6.31616211 19.67352539 6.31616211 25.11352539 C9.50272461 25.08258789 9.50272461 25.08258789 12.75366211 25.05102539 C14.94115822 25.02978756 17.12976758 25.04093593 19.31616211 25.11352539 C20.31616211 26.11352539 20.31616211 26.11352539 20.41381836 27.96118164 C20.38126628 30.01196289 20.34871419 32.06274414 20.31616211 34.11352539 C15.69616211 34.11352539 11.07616211 34.11352539 6.31616211 34.11352539 C6.31616211 40.71352539 6.31616211 47.31352539 6.31616211 54.11352539 C12.25616211 54.11352539 18.19616211 54.11352539 24.31616211 54.11352539 C24.31616211 56.75352539 24.31616211 59.39352539 24.31616211 62.11352539 C23.31616211 63.11352539 23.31616211 63.11352539 20.72412109 63.22705078 C19.59820557 63.22181396 18.47229004 63.21657715 17.31225586 63.21118164 C16.09731445 63.20795898 14.88237305 63.20473633 13.63061523 63.20141602 C12.3512207 63.19303711 11.07182617 63.1846582 9.75366211 63.17602539 C8.47040039 63.17151367 7.18713867 63.16700195 5.86499023 63.16235352 C2.68200189 63.15052085 -0.50089551 63.13403607 -3.68383789 63.11352539 C-3.70696526 55.04700365 -3.72475498 46.98049567 -3.73565006 38.91394901 C-3.74087803 35.16869502 -3.74797411 31.42346363 -3.75927734 27.67822266 C-3.7701093 24.06670852 -3.77611538 20.45521618 -3.77871513 16.84368706 C-3.78056883 15.4629221 -3.78418838 14.08215839 -3.78956795 12.70140266 C-3.79678236 10.77376587 -3.79724598 8.84610732 -3.79736328 6.91845703 C-3.79958389 5.8192543 -3.8018045 4.72005157 -3.80409241 3.58753967 C-3.63591792 0.12766052 -3.4805994 0.14722812 0 0 Z " fill="#FEF8F6" transform="translate(167.683837890625,211.886474609375)"/>
<path d="M0 0 C0.61875 0.495 1.2375 0.99 1.875 1.5 C-7.03864903 15.13788301 -7.03864903 15.13788301 -11.125 16.5 C-11.125 18.15 -11.125 19.8 -11.125 21.5 C-8.37812119 22.08267126 -5.65935132 22.56268348 -2.875 22.9375 C1.43189588 23.58353438 5.63634876 24.51002023 9.875 25.5 C9.45577533 30.25121294 7.41763298 33.42859611 3.875 36.5 C-1.68132262 39.93962829 -6.64760893 41.3357924 -13.125 40.5 C-19.58119146 38.11080649 -23.16168577 33.4111211 -26.9375 27.8125 C-28.88993643 22.36622997 -29.36314987 16.7081839 -27.24609375 11.22265625 C-21.5001111 1.34260027 -11.30781609 -5.42775172 0 0 Z " fill="#EB6137" transform="translate(191.125,420.5)"/>
<path d="M0 0 C2.97 0 5.94 0 9 0 C9 17.49 9 34.98 9 53 C15.6 53 22.2 53 29 53 C28 61 28 61 27 62 C24.92737924 62.08767112 22.85179706 62.10695873 20.77734375 62.09765625 C19.51728516 62.09443359 18.25722656 62.09121094 16.95898438 62.08789062 C15.61848891 62.07953403 14.27799412 62.07106907 12.9375 62.0625 C11.59310058 62.0574866 10.2486994 62.05292342 8.90429688 62.04882812 C5.60282059 62.03699488 2.30143197 62.02050971 -1 62 C-1.02312764 54.06386213 -1.04091723 46.12773824 -1.05181217 38.19157505 C-1.05704008 34.50685502 -1.06413605 30.82215797 -1.07543945 27.13745117 C-1.08627162 23.58429169 -1.09227753 20.03115437 -1.09487724 16.47797966 C-1.0967309 15.11954334 -1.10035038 13.76110829 -1.10573006 12.40268135 C-1.11294475 10.50617777 -1.11340809 8.60965207 -1.11352539 6.71313477 C-1.115746 5.63169693 -1.11796661 4.55025909 -1.12025452 3.43605042 C-1 1 -1 1 0 0 Z " fill="#FDF5F2" transform="translate(201,212)"/>
<path d="M0 0 C5.92330104 1.00037973 10.10776941 2.33082705 15 6 C16.66026356 7.01059521 18.32470102 8.01453001 20 9 C19.49396008 11.16874252 19.00016187 12.99967627 18 15 C17.90272972 16.53915909 17.87022532 18.08277776 17.875 19.625 C17.87242187 20.44226563 17.86984375 21.25953125 17.8671875 22.1015625 C18.03548623 25.77443469 18.5105047 29.35597947 19 33 C16.37957157 34.67394001 13.75294095 36.3378835 11.125 38 C10.37863281 38.47695313 9.63226563 38.95390625 8.86328125 39.4453125 C8.14785156 39.89648438 7.43242187 40.34765625 6.6953125 40.8125 C6.03547363 41.23144531 5.37563477 41.65039062 4.69580078 42.08203125 C3 43 3 43 1 43 C0.7031722 39.14123857 1.16388689 36.26301397 2.5 32.6875 C4.10154354 28.13696042 5.04398659 23.79239557 4 19 C0.57617132 15.6799237 -3.37159877 15.45376483 -8 15 C-8.375 12.9375 -8.375 12.9375 -8 10 C-6.63012333 8.06779742 -5.12622254 6.37630522 -3.5078125 4.6484375 C-1.80095128 2.86639241 -1.80095128 2.86639241 0 0 Z " fill="#EB6136" transform="translate(237,379)"/>
<path d="M0 0 C2.5625 0.5625 2.5625 0.5625 4.75 2.5 C10.277161 11.83899617 9.62584339 23.87136009 7.25 34.125 C6.28299531 37.89580666 5.24724432 40.69214372 2.5625 43.5625 C-0.4375 44.0625 -0.4375 44.0625 -3.4375 43.5625 C-7.08028286 40.3100153 -8.17530763 35.19639732 -8.64599609 30.46801758 C-8.74118037 28.22464005 -8.7659462 25.99532034 -8.75 23.75 C-8.74653564 22.95899902 -8.74307129 22.16799805 -8.73950195 21.35302734 C-8.61376154 14.57971761 -8.16398397 1.8839963 0 0 Z " fill="#EB6137" transform="translate(208.4375,141.4375)"/>
<path d="M0 0 C2.64 0 5.28 0 8 0 C9 1 9 1 9.12025452 3.47401428 C9.1169236 5.12281837 9.1169236 5.12281837 9.11352539 6.80493164 C9.11344986 8.04614273 9.11337433 9.28735382 9.11329651 10.56617737 C9.10818911 11.9308374 9.1029731 13.29549702 9.09765625 14.66015625 C9.095792 16.04878183 9.09436813 17.43740807 9.09336853 18.82603455 C9.08954387 22.48721115 9.07971403 26.1483483 9.06866455 29.80950928 C9.05844932 33.54292263 9.05387067 37.27634234 9.04882812 41.00976562 C9.03809171 48.33986177 9.02101591 55.66992536 9 63 C6.03 63 3.06 63 0 63 C0 42.21 0 21.42 0 0 Z " fill="#FEFCFB" transform="translate(144,212)"/>
<path d="M0 0 C2.77316676 0.25483154 5.54234555 0.52809449 8.3125 0.8125 C9.09818359 0.88275391 9.88386719 0.95300781 10.69335938 1.02539062 C11.45068359 1.10595703 12.20800781 1.18652344 12.98828125 1.26953125 C14.03302612 1.37164917 14.03302612 1.37164917 15.09887695 1.47583008 C17.50008616 2.13788172 18.45606527 3.06756727 20 5 C20.33 5.99 20.66 6.98 21 8 C21.99 8.33 22.98 8.66 24 9 C24.33 10.98 24.66 12.96 25 15 C17.20097963 15.42799502 10.50713982 15.79220395 4 11 C3.45601562 10.62488281 2.91203125 10.24976563 2.3515625 9.86328125 C0.16084365 6.84312839 0.30139874 3.67706463 0 0 Z " fill="#EB643B" transform="translate(208,408)"/>
<path d="M0 0 C7.28846154 0 7.28846154 0 10.8515625 3.30859375 C12.73764431 6.08639451 12.81662528 8.5497966 12.5859375 11.83984375 C11.50243928 15.83434051 9.55956846 16.95654403 6 19 C4.02 19 2.04 19 0 19 C0 12.73 0 6.46 0 0 Z " fill="#EC663D" transform="translate(244,142)"/>
<path d="M0 0 C5 2 5 2 7.25 3.0625 C11.10181488 4.37561871 14.95985361 4.66552165 19 5 C19 5.66 19 6.32 19 7 C15.49198383 9.85158659 11.45757772 12.82159145 6.84765625 13.15625 C5 12.75 5 12.75 2 11 C0.11589837 7.3137142 -0.24128029 4.10176491 0 0 Z " fill="#EC6A42" transform="translate(210,422)"/>
<path d="M0 0 C0.66 0.33 1.32 0.66 2 1 C1.60167969 1.43570312 1.20335937 1.87140625 0.79296875 2.3203125 C-2.48936831 6.00994686 -4.99399746 9.43077198 -7 14 C-10.3 13.34 -13.6 12.68 -17 12 C-15.86494095 8.59482286 -15.4471812 8.37976225 -12.47265625 6.703125 C-11.76302734 6.30222656 -11.05339844 5.90132813 -10.32226562 5.48828125 C-9.57654297 5.07964844 -8.83082031 4.67101562 -8.0625 4.25 C-7.32064453 3.82589844 -6.57878906 3.40179688 -5.81445312 2.96484375 C-1.6907103 0.66930604 -1.6907103 0.66930604 0 0 Z " fill="#ED724D" transform="translate(256,417)"/>
<path d="M0 0 C1.8125 0.1875 1.8125 0.1875 4 1 C6.14197494 3.90696599 7 5.35521088 7 9 C0.565 9.495 0.565 9.495 -6 10 C-4.29395475 5.73488687 -2.90212286 3.38581001 0 0 Z " fill="#EC6E48" transform="translate(195,426)"/>
<path d="M0 0 C-0.54140625 0.21398437 -1.0828125 0.42796875 -1.640625 0.6484375 C-4.8392797 2.48077943 -7.20964484 4.99796606 -9.75 7.625 C-10.50990234 8.3984375 -10.50990234 8.3984375 -11.28515625 9.1875 C-12.52803902 10.45383339 -13.76465276 11.7263144 -15 13 C-15.66 12.67 -16.32 12.34 -17 12 C-15.56665422 10.37133456 -14.12817021 8.74719006 -12.6875 7.125 C-11.88699219 6.22007812 -11.08648437 5.31515625 -10.26171875 4.3828125 C-6.83792941 0.77571147 -4.89433586 -0.2645587 0 0 Z " fill="#F9D9CF" transform="translate(230,354)"/>
<path d="M0 0 C0.66 0.33 1.32 0.66 2 1 C-2.95 5.95 -7.9 10.9 -13 16 C-13 10.79628205 -8.49504984 7.5790344 -5 4 C-3.37707762 2.6137538 -1.7331451 1.24569804 0 0 Z " fill="#FAE1D9" transform="translate(51,159)"/>
<path d="M0 0 C0.66 0.33 1.32 0.66 2 1 C-2.62 5.62 -7.24 10.24 -12 15 C-12 10.09687565 -8.29800369 7.38658643 -5 4 C-3.37458956 2.61667196 -1.72614587 1.25537882 0 0 Z " fill="#ED7854" transform="translate(60,169)"/>
<path d="M0 0 C1.85625 0.1546875 1.85625 0.1546875 3.75 0.3125 C3.75 0.6425 3.75 0.9725 3.75 1.3125 C2.2340625 1.621875 2.2340625 1.621875 0.6875 1.9375 C-3.89907657 3.21050901 -6.8873197 6.06224974 -10.25 9.3125 C-5.66842217 -0.01001488 -5.66842217 -0.01001488 0 0 Z " fill="#F9D3C8" transform="translate(232.25,317.6875)"/>
<path d="M0 0 C0.66 0.33 1.32 0.66 2 1 C-0.97 3.97 -3.94 6.94 -7 10 C-7 6.04435836 -5.59478606 4.89133304 -3 2 C-2.01 1.34 -1.02 0.68 0 0 Z " fill="#FADBD2" transform="translate(354,212)"/>
<path d="M0 0 C0.66 0.33 1.32 0.66 2 1 C-0.97 3.97 -3.94 6.94 -7 10 C-7 6.04435836 -5.59478606 4.89133304 -3 2 C-2.01 1.34 -1.02 0.68 0 0 Z " fill="#FAE1D9" transform="translate(215,69)"/>
<path d="M0 0 C0.33 2.64 0.66 5.28 1 8 C-0.70884005 6.37660195 -2.37446717 4.70680947 -4 3 C-4 2.34 -4 1.68 -4 1 C-2 0 -2 0 0 0 Z " fill="#EE7D5A" transform="translate(205,417)"/>
<path d="M0 0 C0.33 0 0.66 0 1 0 C1.33 4.29 1.66 8.58 2 13 C1.01 12.67 0.02 12.34 -1 12 C-0.67 8.04 -0.34 4.08 0 0 Z " fill="#EC6C45" transform="translate(107,243)"/>
</svg>
