<?xml version="1.0" encoding="UTF-8"?>
<svg version="1.1" xmlns="http://www.w3.org/2000/svg" width="482" height="559">
<path d="M0 0 C1.00873169 0.00456207 1.00873169 0.00456207 2.0378418 0.00921631 C13.00395202 0.08225878 23.25608867 0.95235105 33.6875 4.4375 C34.32461914 4.64648926 34.96173828 4.85547852 35.61816406 5.07080078 C51.59559896 10.49273154 65.35895534 19.02650603 77.6875 30.4375 C78.48542969 31.15421875 79.28335937 31.8709375 80.10546875 32.609375 C89.59008528 41.54002277 96.73742969 52.55228606 103.27563477 63.73632812 C110.44337615 75.93052945 118.80393333 87.44021164 127.6875 98.4375 C128.14737305 99.00710449 128.60724609 99.57670898 129.08105469 100.16357422 C144.80266579 119.45634343 162.9557521 132.39796024 184.24072266 144.98681641 C194.65031538 151.15861844 204.62640538 157.34035162 213.6875 165.4375 C214.40292969 166.05882812 215.11835938 166.68015625 215.85546875 167.3203125 C233.80637384 183.91708742 239.92680868 210.47458059 240.91015625 234.015625 C241.68132326 263.20384987 235.45752825 293.50176196 228.453125 321.75390625 C228.2687236 322.49784637 228.0843222 323.2417865 227.89433289 324.00827026 C227.01829049 327.511426 226.11689395 331.00562932 225.17700195 334.4921875 C223.17134625 342.21075749 221.02493666 350.47154906 222.6875 358.4375 C224.95914428 361.0675831 227.31019458 362.99823415 230.06640625 365.109375 C235.61127575 370.03447518 239.23836559 378.10983663 239.86450195 385.53710938 C240.50908333 409.1426551 240.50908333 409.1426551 233.4375 418.375 C231.3930722 421.95274866 231.55508246 423.62511919 231.6875 427.6875 C231.93004824 436.21549611 229.80478671 442.22258165 224.3125 448.75 C217.03742552 456.42667094 208.38745773 462.82652934 197.43823242 463.59545898 C195.03893837 463.63324509 192.64901513 463.6127614 190.25 463.5625 C189.00959961 463.54896484 189.00959961 463.54896484 187.74414062 463.53515625 C185.72513292 463.51181512 183.70627644 463.47595288 181.6875 463.4375 C181.15382813 464.51386719 180.62015625 465.59023438 180.0703125 466.69921875 C160.29969377 505.77743353 123.48226612 532.60142954 82.51171875 546.60546875 C55.37986468 555.46673475 28.11306595 559.87450234 -0.375 559.75 C-1.26913605 559.74784485 -2.16327209 559.7456897 -3.08450317 559.74346924 C-48.17974311 559.56980787 -95.16003014 549.21962616 -132.3125 522.4375 C-132.84697754 522.05416504 -133.38145508 521.67083008 -133.93212891 521.27587891 C-146.53442919 512.15702001 -157.94024281 501.90297251 -167.3125 489.4375 C-168.19808594 488.27541016 -168.19808594 488.27541016 -169.1015625 487.08984375 C-172.81982583 482.00482153 -176.01258252 476.65605243 -179.125 471.1875 C-179.70314453 470.17683472 -179.70314453 470.17683472 -180.29296875 469.14575195 C-182.42264242 465.32961462 -184.07470245 461.65518055 -185.3125 457.4375 C-190.35094577 456.17408309 -193.19282798 456.80129242 -197.9375 458.8125 C-207.39910376 462.76034866 -217.90196213 464.30078179 -228.03125 461.75390625 C-233.99627519 458.9893465 -238.43907178 453.80734844 -240.8046875 447.67578125 C-242.83109278 438.74401027 -242.03911904 429.34679948 -237.3125 421.4375 C-233.74800502 416.35538461 -230.89652158 414.53740882 -224.9375 412.75 C-218.26893611 410.41535458 -214.93445691 407.58869311 -211.21875 401.4140625 C-209.19621943 394.77109571 -211.87052825 387.96333415 -213.875 381.5625 C-216.3125 373.66580579 -216.3125 373.66580579 -216.3125 371.4375 C-217.42625 371.0971875 -217.42625 371.0971875 -218.5625 370.75 C-222.96019552 368.65109986 -225.55247656 364.91408136 -227.3125 360.4375 C-227.54296875 357.08203125 -227.54296875 357.08203125 -227.5 353.25 C-227.49033203 351.37248047 -227.49033203 351.37248047 -227.48046875 349.45703125 C-227.44017629 347.41012434 -227.32656283 345.51300572 -226.95141602 343.4987793 C-225.65026646 336.31394887 -227.559024 329.8020618 -229.31417847 322.85415649 C-232.7368801 309.24958334 -235.50444932 295.59544434 -237.75 281.75 C-237.93745285 280.60149063 -237.93745285 280.60149063 -238.12869263 279.42977905 C-241.44489715 259.01696702 -241.44489715 259.01696702 -241.55078125 249.484375 C-241.56062042 248.75046036 -241.57045959 248.01654572 -241.58059692 247.26039124 C-241.85605291 221.40217349 -240.56133678 195.3386062 -223.3125 174.4375 C-222.64605469 173.60992187 -221.97960937 172.78234375 -221.29296875 171.9296875 C-210.54268985 159.26179129 -196.0526138 151.41054874 -181.95556641 143.03759766 C-148.32313701 123.0348207 -124.96804785 96.46832245 -104.3125 63.4375 C-85.69926894 33.73297744 -61.72870556 11.28594536 -26.89208984 2.58300781 C-17.86637964 0.66707372 -9.25930294 -0.07332027 0 0 Z " fill="#EB5C31" transform="translate(241.3125,-0.4375)"/>
<path d="M0 0 C12.48560194 2.67912254 27.59918841 3.69994436 39.75292969 -0.72705078 C41.87402344 -1.38330078 41.87402344 -1.38330078 46.87402344 -1.38330078 C48.85402344 3.56669922 48.85402344 3.56669922 50.87402344 8.61669922 C40.26951652 13.74791224 30.86063294 14.93709289 19.12402344 14.80419922 C18.02703125 14.80355469 16.93003906 14.80291016 15.79980469 14.80224609 C10.68878736 14.77436782 5.91197208 14.5392091 0.87402344 13.61669922 C-2.09634004 13.19236158 -4.03247446 13.27297676 -7.12597656 13.61669922 C-9.46155267 15.68069671 -10.58430543 17.01908896 -12.12597656 19.61669922 C-12.72152344 20.56802734 -12.72152344 20.56802734 -13.32910156 21.53857422 C-20.61155015 34.53636221 -23.31761921 50.19464178 -26.56347656 64.55419922 C-35.04325084 101.87597848 -35.04325084 101.87597848 -45.56347656 114.55419922 C-47.34914285 116.44426837 -47.34914285 116.44426837 -47.00097656 118.55419922 C-46.71222656 119.23482422 -46.42347656 119.91544922 -46.12597656 120.61669922 C-41.87603768 131.69229751 -43.41254399 143.92457636 -48.12597656 154.61669922 C-51.99370666 161.59819684 -56.97067563 166.635858 -63.12597656 171.61669922 C-63.78597656 172.27669922 -64.44597656 172.93669922 -65.12597656 173.61669922 C-64.38154297 174.10976563 -64.38154297 174.10976563 -63.62207031 174.61279297 C-56.80851296 179.38357601 -50.58002995 185.45956402 -48.12597656 193.61669922 C-46.73393671 205.07773027 -47.58591182 214.52848705 -54.81738281 223.78076172 C-62.45292314 232.29303423 -72.38879982 236.29592343 -83.60644531 237.49560547 C-95.26723734 237.89680919 -104.94793315 234.75517743 -114.12597656 227.61669922 C-116.20892286 228.64631049 -118.27281507 229.69600772 -120.31738281 230.80029297 C-128.00914493 234.86792994 -136.25349677 238.33608947 -145.12597656 237.61669922 C-146.38835387 235.0919446 -146.22454061 233.30469456 -146.18847656 230.49169922 C-146.17945313 229.58162109 -146.17042969 228.67154297 -146.16113281 227.73388672 C-146.14953125 227.03521484 -146.13792969 226.33654297 -146.12597656 225.61669922 C-145.1965625 225.44654297 -144.26714844 225.27638672 -143.30957031 225.10107422 C-130.92161629 222.87444406 -130.92161629 222.87444406 -122.14550781 214.50732422 C-119.3242961 210.14980049 -117.39562498 205.92117332 -115.81347656 200.99169922 C-115.53133301 200.13777588 -115.24918945 199.28385254 -114.95849609 198.40405273 C-111.36453479 186.96898524 -108.91929229 175.18754116 -106.40991211 163.47558594 C-102.79444635 146.83616579 -97.73133208 131.79235419 -83.12597656 121.61669922 C-78.59814745 119.21924786 -73.98473191 117.23628433 -69.12597656 115.61669922 C-78.01975046 111.61931709 -86.88969184 113.28080103 -95.82080078 116.42675781 C-106.60055772 120.53240027 -113.14574191 127.89007272 -118.00097656 138.30419922 C-119.17343095 141.75642603 -119.75641504 144.9949963 -120.12597656 148.61669922 C-124.08597656 148.94669922 -128.04597656 149.27669922 -132.12597656 149.61669922 C-133.00645604 137.64217831 -128.57916756 128.56020683 -121.35644531 119.15576172 C-113.39312816 110.09068965 -101.94355805 102.57624564 -89.69799805 101.37939453 C-76.57012976 100.71567354 -66.29945293 101.16771497 -55.12597656 108.61669922 C-54.85398437 107.90900391 -54.58199219 107.20130859 -54.30175781 106.47216797 C-53.09778242 103.54822774 -51.71704085 100.76225115 -50.31347656 97.92919922 C-46.90249212 90.55387451 -44.7974231 83.04459668 -42.78662109 75.18847656 C-42.08001845 72.43779206 -41.35258764 69.69315652 -40.62207031 66.94873047 C-37.68908579 56.00287397 -37.68908579 56.00287397 -35.10253906 44.97216797 C-32.71200265 33.8528955 -29.50437361 22.50666028 -23.34863281 12.81982422 C-22.74341797 11.72927734 -22.74341797 11.72927734 -22.12597656 10.61669922 C-22.62097656 9.13169922 -22.62097656 9.13169922 -23.12597656 7.61669922 C-25.81033636 6.69520257 -28.30123715 6.01344225 -31.06347656 5.42919922 C-31.86382324 5.258479 -32.66416992 5.08775879 -33.48876953 4.91186523 C-42.77614148 3.09011848 -55.31707026 0.79427482 -63.93847656 5.67919922 C-69.58114193 10.22932118 -73.52426772 16.2765332 -74.34472656 23.55810547 C-74.5598878 28.28268765 -73.89927786 31.64163402 -71.12597656 35.61669922 C-68.07558436 37.51876771 -68.07558436 37.51876771 -65.12597656 38.61669922 C-65.12597656 42.57669922 -65.12597656 46.53669922 -65.12597656 50.61669922 C-71.57179858 50.27138733 -76.18148045 48.90339097 -81.12597656 44.61669922 C-86.71687375 37.41459247 -86.84862705 29.38749827 -86.12597656 20.61669922 C-83.63985183 10.44033373 -78.10081147 0.94500799 -69.03613281 -4.68017578 C-48.83246466 -15.06418399 -20.48399714 -4.7206333 0 0 Z " fill="#FEFBFA" transform="translate(168.1259765625,205.38330078125)"/>
<path d="M0 0 C10.98319864 -0.48514742 19.25690233 -0.46357325 28.375 6.375 C32.1097058 10.1097058 33.89230646 13.06151628 34.1875 18.375 C34.0946875 19.674375 34.0946875 19.674375 34 21 C32.35 21 30.7 21 29 21 C29.020625 21.804375 29.04125 22.60875 29.0625 23.4375 C29 26 29 26 28 27 C27.92087053 28.5825894 27.86170096 30.16619763 27.8125 31.75 C27.47211319 35.40523068 27.1242093 37.601853 24.375 40.125 C20.50460646 42.27521864 18.36007907 42.49359386 14 42 C12.515 41.505 12.515 41.505 11 41 C10.505 41.99 10.505 41.99 10 43 C10.556875 43.20625 11.11375 43.4125 11.6875 43.625 C17.85370943 47.2913948 20.10374797 53.08217778 22.59375 59.51171875 C24.32888691 62.58194711 25.79828301 63.57125148 29 65 C31.46141137 65.31239229 31.46141137 65.31239229 33.9375 65.25 C37.97182788 65.53859573 39.81546928 66.18950306 42.5 69.25 C46.03793743 74.15713921 47.2837976 77.89835158 47 84 C45.35 83.67 43.7 83.34 42 83 C41.67 81.68 41.34 80.36 41 79 C39.33388095 78.957279 37.66617115 78.95936168 36 79 C34.55755249 80.2224093 34.55755249 80.2224093 34.75 83.875 C34.78639314 89.52503545 36.31809155 94.6439225 38 100 C38.7425 99.67 39.485 99.34 40.25 99 C48.32651903 96.84626159 57.55412645 96.86630137 65 101 C72.11252942 106.27907739 78.19965547 112.04650086 80 121 C81.06289308 130.68712684 79.55235083 137.93137103 74 146 C68.42734359 152.45556699 62.66290817 155.61463569 54.21875 156.3125 C46.77100633 156.62416856 40.22155615 156.55080578 34 152 C32.700625 151.195625 32.700625 151.195625 31.375 150.375 C26.11568665 145.11568665 22.38024024 138.31527327 21 131 C21 128.69 21 126.38 21 124 C16.05 124 11.1 124 6 124 C6 122.02 6 120.04 6 118 C3.73915056 119.19087524 1.49293364 120.40117708 -0.75 121.625 C-1.38421875 121.95628906 -2.0184375 122.28757812 -2.671875 122.62890625 C-7.1337568 125.09223683 -9.31256013 127.56202591 -12 132 C-15.36974594 133.85336027 -17.07106489 134 -21 134 C-21.0825 134.86625 -21.165 135.7325 -21.25 136.625 C-22.88147975 143.96665889 -28.11657721 148.70141065 -34 153 C-40.58201743 157.04608864 -48.54287546 156.96950698 -56 156 C-64.57786576 153.33894646 -70.55423828 148.79958196 -75 141 C-78.32671058 134.39444517 -79.10963538 127.28539295 -78 120 C-75.39643779 112.38319568 -71.71858007 106.48959233 -65 102 C-64.13375 101.401875 -63.2675 100.80375 -62.375 100.1875 C-55.66028755 96.83014378 -46.21632819 96.81646928 -39.10546875 98.8125 C-37.81576172 99.2765625 -37.81576172 99.2765625 -36.5 99.75 C-34.17636082 100.61589514 -34.17636082 100.61589514 -32 101 C-28.69644138 99.31451091 -27.44421223 98.23012618 -26.1875 94.75 C-26.0946875 93.88375 -26.0946875 93.88375 -26 93 C-28.31 92.67 -30.62 92.34 -33 92 C-33.33 90.35 -33.66 88.7 -34 87 C-30.94736336 86.01879536 -29.05263664 86.01879536 -26 87 C-26.33 86.34 -26.66 85.68 -27 85 C-27.8940698 71.14191817 -23.12902183 58.22356383 -14.23828125 47.58203125 C-6.33544691 38.5924253 -6.33544691 38.5924253 -2 37 C0.75 36.875 0.75 36.875 3 37 C3 36.34 3 35.68 3 35 C2.0925 34.896875 1.185 34.79375 0.25 34.6875 C-3.01961575 33.99585051 -4.53717737 33.17865079 -7 31 C-6.195625 30.54625 -5.39125 30.0925 -4.5625 29.625 C-1.91143428 28.25274335 -1.91143428 28.25274335 -1 26 C-1.5053125 25.67128906 -2.010625 25.34257812 -2.53125 25.00390625 C-5.33037038 22.95455026 -7.58168149 21.29122592 -8.67578125 17.9140625 C-9.03332011 12.09128681 -6.80367294 8.30953785 -3.5078125 3.65234375 C-3.01023437 3.10707031 -2.51265625 2.56179687 -2 2 C-1.34 2 -0.68 2 0 2 C0 1.34 0 0.68 0 0 Z " fill="#FEFAF9" transform="translate(368,176)"/>
<path d="M0 0 C2.34765625 -0.328125 2.34765625 -0.328125 5.0625 -0.25 C5.96097656 -0.23453125 6.85945313 -0.2190625 7.78515625 -0.203125 C10 0 10 0 11 1 C10.51998963 5.72010197 9.78109063 10.31345623 9 15 C17.91 15 26.82 15 36 15 C35 26 35 26 34 27 C31.9291528 27.1584265 29.85321971 27.25124422 27.77734375 27.31640625 C26.51728516 27.35830078 25.25722656 27.40019531 23.95898438 27.44335938 C22.61849264 27.48317596 21.2779978 27.52288814 19.9375 27.5625 C18.59308477 27.60568042 17.2486834 27.64929456 15.90429688 27.69335938 C12.6029766 27.79985358 9.30157764 27.9018646 6 28 C2.00013211 43.23486742 -1.91299768 58.47918461 -5.47949219 73.82177734 C-6.00006343 76.00026542 -6.56256622 78.16505649 -7.12890625 80.33203125 C-8.03266677 84.13755202 -8.16152119 87.12349135 -8 91 C-4.86501708 92.85776765 -2.62528568 93.20140476 1 93 C3.97053015 87.48051809 5.88486562 82.4419139 7.21875 76.3359375 C7.59759568 74.70311095 7.97650379 73.07029887 8.35546875 71.4375 C8.93142753 68.8995433 9.50320893 66.36069251 10.07275391 63.82128906 C10.63200636 61.34453139 11.20606287 58.87153507 11.78125 56.3984375 C11.94492065 55.64517181 12.10859131 54.89190613 12.27722168 54.11581421 C14.06595257 46.46170741 17.79458046 41.65406465 24 37 C28.94054003 33.96373664 34.39052677 34.49536682 40 35 C42.61306191 35.75469067 44.59779319 36.68970538 47 38 C47.33 37.01 47.66 36.02 48 35 C51.96 35 55.92 35 60 35 C59.31700788 40.57691314 58.11014937 45.89742008 56.71484375 51.3359375 C56.26195554 53.14052109 55.80949477 54.94521199 55.35742188 56.75 C54.64875972 59.56404368 53.93694673 62.37716205 53.2175293 65.18847656 C52.51957761 67.92281902 51.8350647 70.66025825 51.15234375 73.3984375 C50.93674301 74.2268515 50.72114227 75.0552655 50.49900818 75.90878296 C49.14026111 81.41039044 48.80450009 86.33227656 49 92 C49.66153076 92.08628662 50.32306152 92.17257324 51.00463867 92.26147461 C52.58251953 92.46728516 54.16040039 92.6730957 55.73828125 92.87890625 C58.16817116 93.14755178 58.16817116 93.14755178 61 92 C61.33 91.01 61.66 90.02 62 89 C65.3 89.33 68.6 89.66 72 90 C72.75 92.125 72.75 92.125 73 95 C70.41033328 100.40452185 66.53742066 103.84399928 61 106 C54.58211013 106.96495933 49.60331606 106.41665613 44 103 C42.08333333 102.16666667 42.08333333 102.16666667 40 102 C38.17381536 102.97692782 38.17381536 102.97692782 36.4375 104.4375 C31.44578256 107.76531163 26.84351303 107.96966592 21 107 C18.75189336 106.09174991 16.79257808 105.08508789 14.75390625 103.77734375 C12.44086336 102.75218666 11.34576802 103.16930549 9 104 C8.13375 104.350625 7.2675 104.70125 6.375 105.0625 C1.86890519 106.314193 -2.35255181 106.54675861 -7 106 C-8.68991979 105.0398183 -10.36209288 104.04644066 -12 103 C-15.01148268 103.18437649 -17.2070635 103.56003734 -19.8515625 105.02734375 C-23.99803644 106.90456559 -28.55561765 106.55475978 -33 106 C-35.09765625 105.03125 -35.09765625 105.03125 -36.875 103.875 C-39.77364452 101.64693775 -39.77364452 101.64693775 -42.5 102.5625 C-43.325 103.036875 -44.15 103.51125 -45 104 C-50.70980664 106.91088182 -55.57410072 108.0676259 -62 107 C-68.47674226 104.3596556 -72.89605412 99.70695226 -76.3125 93.6875 C-78.037969 86.94248483 -76.91401836 80.2950598 -75.171875 73.67578125 C-74.98159729 72.92588425 -74.79131958 72.17598724 -74.59527588 71.40336609 C-74.19370354 69.8332068 -73.78672133 68.2644218 -73.37451172 66.69702148 C-72.74980346 64.31174955 -72.14932161 61.9212524 -71.55078125 59.52929688 C-71.15508318 57.99442039 -70.75799498 56.45990148 -70.359375 54.92578125 C-70.18315613 54.21940018 -70.00693726 53.5130191 -69.82537842 52.78523254 C-67.75750383 45.06913831 -64.00046116 40.0328884 -57.203125 35.91015625 C-51.41286955 33.51808263 -44.00649399 34.3310353 -38.25 36.5 C-37.1775 36.995 -36.105 37.49 -35 38 C-34.67 36.68 -34.34 35.36 -34 34 C-30.37 34 -26.74 34 -23 34 C-22.72839577 39.79681024 -23.70388734 44.72327881 -25.1875 50.3125 C-25.52152832 51.60897461 -25.52152832 51.60897461 -25.86230469 52.93164062 C-27.81124315 60.43765045 -29.87529739 67.91257449 -31.984375 75.375 C-33.19169816 79.68421497 -34.1284176 83.26760304 -34.0625 87.75 C-34.05347656 88.54921875 -34.04445312 89.3484375 -34.03515625 90.171875 C-34.02355469 90.77515625 -34.01195312 91.3784375 -34 92 C-32.56465159 92.2226746 -31.12654475 92.42761906 -29.6875 92.625 C-28.48673828 92.79902344 -28.48673828 92.79902344 -27.26171875 92.9765625 C-24.71276785 93.21533407 -24.71276785 93.21533407 -22 91 C-21.07953765 88.19274274 -20.34598693 85.4956569 -19.6875 82.625 C-19.47875244 81.75520508 -19.27000488 80.88541016 -19.05493164 79.98925781 C-16.94596439 71.06974473 -15.06546793 62.09801807 -13.17407227 53.13037109 C-11.31806726 44.35840094 -9.25607808 35.67722339 -7 27 C-11.95 27 -16.9 27 -22 27 C-23.31428535 21.7428586 -22.04378136 19.90507527 -20 15 C-14.72 15 -9.44 15 -4 15 C-3.71125 13.081875 -3.4225 11.16375 -3.125 9.1875 C-2.54442806 5.33084356 -2.18742014 3.2811302 0 0 Z " fill="#FEFBFA" transform="translate(215,226)"/>
<path d="M0 0 C1.51895874 0.00845947 1.51895874 0.00845947 3.06860352 0.01708984 C31.05925113 0.46700715 55.32645086 13.17002647 74.79296875 32.80883789 C83.07649951 41.44096724 89.31770601 51.20732127 95.34106445 61.48706055 C102.43621937 73.47318557 110.77517056 84.77673417 119.875 95.3125 C120.56722656 96.11558594 121.25945312 96.91867188 121.97265625 97.74609375 C124.23252944 100.30947078 126.53885651 102.81840971 128.875 105.3125 C129.33326172 105.80476074 129.79152344 106.29702148 130.26367188 106.80419922 C145.2514799 122.77228552 163.17557612 134.89416369 181.99316406 145.92016602 C201.9415002 157.64018922 212.4276697 174.56951169 218.1484375 196.58203125 C220.0256555 206.22043552 220.11266021 215.89214387 220.125 225.6875 C220.12667175 226.38894135 220.12834351 227.09038269 220.13006592 227.81307983 C220.13428316 257.42357527 220.13428316 257.42357527 214.875 265.3125 C211.38243062 261.49769951 208.44694199 258.23804863 208.4375 252.875 C208.62142458 250.02695575 209.01619956 247.22200495 209.3828125 244.390625 C212.15342836 219.34703592 211.25825816 190.79295356 195.40234375 169.90625 C189.58786516 162.8543702 182.57182341 158.02904341 174.75927734 153.42333984 C158.14119058 143.62646309 142.74056454 132.77917506 128.875 119.3125 C128.25093262 118.71421387 127.62686523 118.11592773 126.98388672 117.49951172 C117.78430297 108.65589735 109.42848432 99.59579796 101.875 89.3125 C101.09382813 88.27609375 100.31265625 87.2396875 99.5078125 86.171875 C94.00302826 78.75701333 89.15424502 70.9852012 84.3125 63.125 C79.30376485 55.01612271 74.39000181 47.30728877 67.875 40.3125 C66.87726563 39.17941406 66.87726563 39.17941406 65.859375 38.0234375 C52.17096645 23.27037495 31.05112297 12.32672782 10.87744141 11.13549805 C-9.97303269 10.6734342 -9.97303269 10.6734342 -30.125 15.3125 C-31.15882813 15.663125 -32.19265625 16.01375 -33.2578125 16.375 C-60.56121975 26.64051082 -76.09320342 48.01756464 -90.68847656 71.96728516 C-100.53214777 88.0376974 -112.04622372 102.76731863 -125.125 116.3125 C-125.73472656 116.97378906 -126.34445313 117.63507813 -126.97265625 118.31640625 C-136.72402119 128.64279025 -149.08530837 136.00217908 -161.125 143.3125 C-184.84784421 157.76921799 -201.34443941 170.98384859 -209.1015625 198.81640625 C-215.02059213 224.89885926 -209.5483893 251.19358403 -204.88110352 276.99902344 C-204.6281931 278.43669515 -204.37611095 279.8745129 -204.125 281.3125 C-203.89683594 282.60583252 -203.66867188 283.89916504 -203.43359375 285.23168945 C-203.125 288.3125 -203.125 288.3125 -204.55859375 290.74609375 C-205.21988281 291.40738281 -205.88117188 292.06867188 -206.5625 292.75 C-207.22121094 293.42933594 -207.87992188 294.10867188 -208.55859375 294.80859375 C-209.07550781 295.30488281 -209.59242188 295.80117188 -210.125 296.3125 C-212.77256106 293.66493894 -212.82837433 291.70153765 -213.52734375 288.03125 C-213.64975937 287.39462433 -213.77217499 286.75799866 -213.89830017 286.1020813 C-214.29664162 284.00732989 -214.68108065 281.91039529 -215.0625 279.8125 C-215.19472961 279.09310242 -215.32695923 278.37370483 -215.4631958 277.63250732 C-220.42598987 250.49178047 -225.25802872 221.46699131 -218.125 194.3125 C-217.83496094 193.17941406 -217.54492188 192.04632813 -217.24609375 190.87890625 C-214.01355414 179.39595172 -209.01429885 169.28657744 -201.125 160.3125 C-200.526875 159.60867187 -199.92875 158.90484375 -199.3125 158.1796875 C-189.37890582 147.35362197 -175.65714741 140.22999012 -163.25 132.625 C-133.57607591 114.39558664 -113.749274 90.28128227 -95.72363281 60.79907227 C-79.08670149 33.59086286 -57.86573074 11.77860633 -25.9375 3.625 C-24.00311642 3.17392057 -22.06518923 2.73791538 -20.125 2.3125 C-19.47337891 2.14258545 -18.82175781 1.9726709 -18.15039062 1.79760742 C-12.06322836 0.27784952 -6.26025175 -0.03666173 0 0 Z " fill="#FEFAF9" transform="translate(241.125,16.6875)"/>
<path d="M0 0 C3.96 0 7.92 0 12 0 C11.67 4.62 11.34 9.24 11 14 C14.96 14 18.92 14 23 14 C24.32 9.38 25.64 4.76 27 0 C30.96 0 34.92 0 39 0 C38.38456758 5.01137825 37.71431406 9.99980158 37 15 C45.91 15 54.82 15 64 15 C63 25 63 25 61 27 C58.20263672 27.22705078 58.20263672 27.22705078 54.6796875 27.1953125 C52.79443359 27.18564453 52.79443359 27.18564453 50.87109375 27.17578125 C49.55238281 27.15902344 48.23367188 27.14226562 46.875 27.125 C45.53516279 27.11496983 44.19531848 27.10584404 42.85546875 27.09765625 C39.57013427 27.07402075 36.28515535 27.04107234 33 27 C32.88825439 27.58555664 32.77650879 28.17111328 32.66137695 28.77441406 C31.35397489 35.4816693 29.80794085 42.11231431 28.1875 48.75 C27.6582204 50.95036848 27.12958798 53.15089273 26.6015625 55.3515625 C25.81341355 58.63152622 25.02198076 61.91045791 24.21777344 65.18652344 C23.48791858 68.16338953 22.77376304 71.14364572 22.0625 74.125 C21.83908936 75.01799805 21.61567871 75.91099609 21.38549805 76.83105469 C20.18073641 81.95190407 19.79147789 85.85183237 21 91 C22.03406673 92.25949049 22.03406673 92.25949049 24.28515625 92.09765625 C25.20167969 92.08605469 26.11820312 92.07445312 27.0625 92.0625 C27.98160156 92.05347656 28.90070313 92.04445313 29.84765625 92.03515625 C30.55792969 92.02355469 31.26820313 92.01195312 32 92 C32.54618045 89.7510217 33.08737827 87.50103254 33.625 85.25 C33.8003125 84.51934326 33.975625 83.78868652 34.15625 83.03588867 C35.34802942 77.98970277 36.43359771 72.9299666 37.4609375 67.84765625 C37.71536621 66.60532227 37.96979492 65.36298828 38.23193359 64.08300781 C38.73796023 61.59887706 39.23334967 59.11255212 39.71728516 56.62402344 C41.6784889 47.06398622 44.1577519 41.88168607 52 36 C56.55424737 33.30885383 60.83797485 33.39270292 66 34 C72.74416325 35.90622145 76.90487797 40.51609745 81 46 C82.36436477 48.72872953 82.20685542 50.9511163 82.25 54 C82.27578125 55.0725 82.3015625 56.145 82.328125 57.25 C82 61 82 61 79 71 C69.1 71 59.2 71 49 71 C46.97410023 80.54994173 46.97410023 80.54994173 47 90 C49.38945749 92.73080856 50.97333979 93.76900145 54.5 94.5625 C57.26654228 94.18347864 57.26654228 94.18347864 59.375 91.5 C62 89 62 89 65.5625 88.5625 C68.60290413 88.94946053 70.45242386 89.36955127 73 91 C72.68927586 95.3501379 71.69463513 98.34747353 68.703125 101.60546875 C63.82098511 105.60300072 58.14425903 107.39605488 51.875 107 C48.36340515 106.50147405 45.9526188 105.52045341 42.9375 103.6875 C41.05360497 102.52352507 41.05360497 102.52352507 39 102 C36.50537519 102.69728228 34.44127601 103.74801195 32.15234375 104.953125 C28.8868726 106.54141224 26.5708142 106.51011631 23 106 C21.44281122 105.32647544 19.90145026 104.61555508 18.375 103.875 C15.09578134 102.18063021 15.09578134 102.18063021 11.5625 102.625 C10.716875 103.07875 9.87125 103.5325 9 104 C2.77038287 105.84500856 -2.9889005 106.95746095 -9 104 C-13.85814324 100.64064563 -17.10226633 97.66646526 -19 92 C-20.17312573 82.03718599 -17.83308772 72.77842569 -15.25 63.25 C-14.8784437 61.83352966 -14.50858148 60.4166139 -14.14038086 58.99926758 C-13.42258269 56.23905126 -12.69864777 53.48057161 -11.97021484 50.72314453 C-10.75550437 46.06176187 -9.63596684 41.38312029 -8.5625 36.6875 C-7.80675056 33.38999237 -7.06929836 30.20789508 -6 27 C-10.95 27 -15.9 27 -21 27 C-20.125 16.125 -20.125 16.125 -19 15 C-16.47403741 14.76346477 -13.96892793 14.57826308 -11.4375 14.4375 C-10.72658203 14.39431641 -10.01566406 14.35113281 -9.28320312 14.30664062 C-7.52238088 14.20028223 -5.7612168 14.09961154 -4 14 C-2.68 9.38 -1.36 4.76 0 0 Z " fill="#FEFBF9" transform="translate(382,337)"/>
<path d="M0 0 C3.96 0 7.92 0 12 0 C11.43030146 7.93878611 9.8374226 15.25208423 7.8125 22.9375 C5.02592104 33.77915756 2.45503121 44.64563004 0.07299805 55.58300781 C-0.99089424 60.46409785 -2.06344949 65.33740778 -3.26171875 70.1875 C-3.45161377 70.95940674 -3.64150879 71.73131348 -3.8371582 72.52661133 C-4.32901723 74.50275489 -4.83191198 76.47614324 -5.3359375 78.44921875 C-6.09221716 82.4930906 -6.2536159 85.89404609 -6 90 C-3.43328837 92.56671163 -1.48174017 92.35526365 2.02734375 92.55859375 C4.21055304 92.15923094 4.21055304 92.15923094 5.51586914 89.92480469 C7.24985525 86.50760554 7.96744297 83.40223741 8.71875 79.64453125 C8.93476868 78.59201424 8.93476868 78.59201424 9.15515137 77.51823425 C9.6123608 75.28469058 10.05701837 73.0489051 10.5 70.8125 C15.91216723 43.81363521 15.91216723 43.81363521 22 39 C22.886875 38.2575 23.77375 37.515 24.6875 36.75 C29.95185965 33.96882887 34.81566973 33.28820853 40.65625 34.59375 C47.76402851 37.07719068 51.66008895 40.95833546 55.375 47.375 C57.30428847 55.47801159 55.44995802 63.18044488 53 71 C52 72 52 72 49.13256836 72.11352539 C47.88096924 72.10828857 46.62937012 72.10305176 45.33984375 72.09765625 C44.34314415 72.09553383 44.34314415 72.09553383 43.3263092 72.09336853 C41.19666101 72.08775518 39.06711661 72.07520054 36.9375 72.0625 C35.49674631 72.05748671 34.05599097 72.05292351 32.61523438 72.04882812 C29.07678898 72.03778145 25.53840461 72.02050792 22 72 C21.67471469 73.76282436 21.35074937 75.52589233 21.02734375 77.2890625 C20.84679443 78.27084473 20.66624512 79.25262695 20.48022461 80.26416016 C19.71085574 84.62024763 19.71085574 84.62024763 20 89 C21.91666667 92.08333333 21.91666667 92.08333333 25 94 C28.63825863 94.25411568 28.63825863 94.25411568 32 93 C32.45375 92.29875 32.9075 91.5975 33.375 90.875 C33.91125 90.25625 34.4475 89.6375 35 89 C39.18019 88.85014413 43.05291952 89.68430651 47 91 C46.54231166 95.92014964 45.60268238 98.57305822 42 102 C36.4077261 105.72136691 31.1530746 107.81304724 24.38671875 107.515625 C20.94145421 106.77131253 18.56739858 104.99600198 15.72265625 102.98828125 C13.96924945 101.721291 13.96924945 101.721291 11.625 102.5625 C10.75875 103.036875 9.8925 103.51125 9 104 C2.76458511 105.85435817 -2.98058769 106.94335993 -9 104 C-14.49081325 100.31967112 -18.17676958 96.49525838 -20 90 C-20.22289689 84.71027624 -19.82785115 80.39255403 -18.4375 75.25 C-18.06833573 73.84522921 -17.6999064 72.44026518 -17.33203125 71.03515625 C-17.12271973 70.2477002 -16.9134082 69.46024414 -16.69775391 68.64892578 C-15.29905024 63.3389416 -13.96305315 58.01303196 -12.625 52.6875 C-12.32553467 51.49745361 -12.02606934 50.30740723 -11.7175293 49.08129883 C-9.32059863 39.47242111 -7.12497253 29.82671591 -5.04150391 20.14526367 C-3.57185838 13.36038264 -1.87957864 6.68356052 0 0 Z " fill="#FEFAF8" transform="translate(307,337)"/>
<path d="M0 0 C3.3 0.66 6.6 1.32 10 2 C2.85533458 18.15315661 -10.18368389 31.35589478 -24 42 C-24.90105469 42.72832031 -25.80210937 43.45664062 -26.73046875 44.20703125 C-51.43362725 63.66289815 -82.34856897 74.54516855 -113 80 C-114.05944824 80.18908936 -115.11889648 80.37817871 -116.21044922 80.57299805 C-126.99305379 82.25567198 -137.7030191 82.33852206 -148.59570312 82.31567383 C-151.73082478 82.31251929 -154.86499453 82.3360379 -158 82.36132812 C-169.87732519 82.39822676 -181.22048611 81.64100771 -192.89039612 79.40113831 C-195.15892426 78.96978077 -197.4321392 78.57499321 -199.70800781 78.18432617 C-233.77963203 72.24669782 -265.33471131 56.09416767 -290 32 C-290.85980469 31.20207031 -291.71960938 30.40414063 -292.60546875 29.58203125 C-300.33022776 22.2405161 -306.11590167 13.8261475 -312 5 C-312 4.01 -312 3.02 -312 2 C-308.43377136 1.1959234 -305.54952176 1.04282559 -302 2 C-298.87150856 5.08563539 -296.61984745 8.64082747 -294.19921875 12.29345703 C-280.57455007 31.68198189 -259.34413116 45.5017143 -238 55 C-237.25588867 55.33483398 -236.51177734 55.66966797 -235.74511719 56.01464844 C-222.22386579 62.00721304 -208.45168334 65.93990631 -194 69 C-193.1970752 69.17934082 -192.39415039 69.35868164 -191.56689453 69.54345703 C-164.22023016 75.43647886 -132.16928097 74.02350316 -105 68 C-104.26442871 67.83983398 -103.52885742 67.67966797 -102.77099609 67.51464844 C-98.44578893 66.53969147 -94.22967917 65.32411417 -90 64 C-89.34257812 63.80744629 -88.68515625 63.61489258 -88.0078125 63.41650391 C-52.86279546 53.11960184 -21.25967783 32.8354845 -1 2 C-0.67 1.34 -0.34 0.68 0 0 Z " fill="#FEFAF8" transform="translate(392,459)"/>
<path d="M0 0 C3.96 0 7.92 0 12 0 C11.38271015 9.81876667 8.89196689 19.06378186 6.43847656 28.54492188 C2.86885303 41.59552642 2.86885303 41.59552642 2 55 C4.27476789 58.47905677 5.5201139 59.67514695 9.5625 60.5625 C12.88730704 59.79523684 13.85608801 58.66628117 16 56 C17.0955364 53.28040542 17.76171758 50.4896656 18.4375 47.640625 C18.64431396 46.81858582 18.85112793 45.99654663 19.06420898 45.14959717 C19.72268625 42.5194789 20.36163559 39.88506396 21 37.25 C21.42839779 35.52441888 21.8580738 33.79915457 22.2890625 32.07421875 C23.74150753 26.24365773 25.17111804 20.40758781 26.59130859 14.5690918 C27.14123525 12.31094673 27.69530134 10.0538517 28.25 7.796875 C28.41314697 7.1202179 28.57629395 6.44356079 28.74438477 5.74639893 C29.88665174 1.11334826 29.88665174 1.11334826 31 0 C32.85287502 -0.07226502 34.70833878 -0.0838122 36.5625 -0.0625 C37.57441406 -0.05347656 38.58632812 -0.04445313 39.62890625 -0.03515625 C40.41136719 -0.02355469 41.19382813 -0.01195312 42 0 C41.57588982 7.90123077 39.84231843 15.30204563 37.84936523 22.94146729 C36.9222928 26.49619352 36.01864411 30.05688149 35.11328125 33.6171875 C34.93080841 34.33260712 34.74833557 35.04802673 34.56033325 35.78512573 C32.92973559 42.20739919 31.45236518 48.6602532 30 55.125 C29.01516882 59.42029594 28.01283182 63.71122331 27 68 C26.85153625 68.63067383 26.70307251 69.26134766 26.55010986 69.91113281 C25.58578443 73.99163377 24.59093859 78.06310583 23.56225586 82.12786865 C23.07728074 84.06593301 22.61541345 86.00973421 22.15429688 87.95361328 C20.23849244 95.3909107 18.02461446 101.00931827 12 106 C7.17781394 108.84654612 2.7622323 109.53433115 -2.765625 108.62890625 C-9.38902554 106.76462743 -13.79116606 103.01077475 -17.16796875 97.0703125 C-18.45291999 93.87301598 -18.35469254 91.4050484 -18 88 C-14.29207191 87.71671178 -10.69795687 87.54730027 -7 88 C-4.73702662 90.45694253 -4 91.6796254 -4 95 C-2.56510191 95.13536774 -1.12652893 95.23217143 0.3125 95.3125 C1.11300781 95.37050781 1.91351563 95.42851562 2.73828125 95.48828125 C5.1708797 95.20461242 5.1708797 95.20461242 6.65625 93.03125 C8.37202022 89.16079161 9.2983117 85.31513283 10.1875 81.1875 C10.36474609 80.39923828 10.54199219 79.61097656 10.72460938 78.79882812 C11.15766255 76.86764503 11.57992568 74.93404777 12 73 C10.76636719 73.04511719 9.53273437 73.09023438 8.26171875 73.13671875 C1.7344603 73.12953172 -2.05348439 69.65030671 -6.875 65.5625 C-11.72368344 59.71555821 -11.56591422 53.27059491 -11 46 C-9.97057646 40.47715161 -8.59519824 35.06162769 -7.1875 29.625 C-6.82625826 28.19561919 -6.46622588 26.76593218 -6.10742188 25.3359375 C-5.5794657 23.23333869 -5.05047255 21.13106396 -4.51608276 19.03009033 C-2.90990433 12.70841554 -1.44245563 6.36136583 0 0 Z " fill="#FEFAF9" transform="translate(206,371)"/>
<path d="M0 0 C3.96 0 7.92 0 12 0 C11.40179761 5.58544074 10.4061208 10.84480755 8.96875 16.26953125 C8.56621773 17.83393588 8.16388008 19.3983906 7.76171875 20.96289062 C7.13283632 23.38567852 6.50125785 25.80770825 5.86572266 28.22875977 C2.08614148 41.42470978 2.08614148 41.42470978 1 55 C2.40087749 57.8213337 2.40087749 57.8213337 5 59 C7.5 59.66666667 7.5 59.66666667 10 59 C14.60109472 55.62217709 15.06785664 51.66663383 16 46.359375 C16.16242188 45.51836243 16.32484375 44.67734985 16.4921875 43.81085205 C17.009507 41.12644883 17.5066411 38.43890237 18 35.75 C18.4945825 33.07568036 18.99392311 30.40267531 19.5078125 27.73199463 C19.82666295 26.07348989 20.13466282 24.41284726 20.4296875 22.74993896 C21.94896429 14.81725678 24.68218091 8.23291318 31.15234375 3.19140625 C36.11355524 -0.00768361 41.03133144 -0.42076836 46.72265625 0.38671875 C52.03077337 1.81617739 56.25524055 5.07144868 60 9 C58.9200311 12.13190982 57.99049526 13.00599212 55.125 14.8125 C51.9783554 16.00822495 51.00511155 16.28790495 48 15 C47.34 14.67 46.68 14.34 46 14 C41.94944183 13.58408287 41.94944183 13.58408287 38 14 C34.90235746 17.26349738 33.98124134 20.95359046 32.95703125 25.21484375 C32.78370773 25.90759903 32.61038422 26.60035431 32.43180847 27.31410217 C32.06860034 28.77461223 31.70999001 30.23627249 31.35571289 31.69897461 C30.81448752 33.92930964 30.2570795 36.15512596 29.69726562 38.38085938 C29.34538618 39.80444859 28.99444328 41.22826968 28.64453125 42.65234375 C28.47895218 43.31395004 28.31337311 43.97555634 28.14277649 44.6572113 C27.30252614 48.16028347 26.61724515 51.39893135 27 55 C29.46764459 58.26600019 30.95618195 59.78253791 35 60.625 C38.22101246 60.26183583 38.22101246 60.26183583 40.3125 57.4375 C43 55 43 55 45.20703125 54.85546875 C48.6486699 55.2391086 51.71110757 55.90370252 55 57 C53.48210773 62.79558867 51.07029609 67.10157265 45.953125 70.265625 C40.76504939 72.80599306 36.7410295 73.64818075 31 73 C27.63989284 71.74707869 24.60520166 70.34799095 21.5 68.5625 C18.75983867 67.64930555 18.75983867 67.64930555 15.75 69.875 C15.15574219 70.25398438 14.56148437 70.63296875 13.94921875 71.0234375 C9.72487498 73.13984219 5.27707601 72.70223695 0.859375 71.33984375 C-4.3197371 69.05668555 -8.05092278 65.82431455 -11 61 C-13.74858042 53.37907577 -12.63757974 47.01547929 -10.60546875 39.375 C-10.33865799 38.30628662 -10.07184723 37.23757324 -9.79695129 36.13647461 C-8.94680707 32.75230706 -8.06742287 29.37653228 -7.1875 26 C-6.60683879 23.7022985 -6.02804386 21.40412451 -5.45117188 19.10546875 C-4.39411302 14.92287969 -3.33238356 10.7416986 -2.24682617 6.56640625 C-2.02983566 5.73052979 -1.81284515 4.89465332 -1.58927917 4.03344727 C-1 2 -1 2 0 0 Z " fill="#FEFBFA" transform="translate(137,371)"/>
<path d="M0 0 C6.90165728 4.56254811 12.3349273 10.78645262 14.0625 19 C15.45619286 27.39059988 12.79276497 34.0742534 8.0625 41 C5.6031819 43.44047275 3.0765878 45.30381294 0.0625 47 C-0.51757812 47.37125 -1.09765625 47.7425 -1.6953125 48.125 C-7.61683873 50.43583951 -16.43553641 49.83708056 -22.51953125 48.3828125 C-28.91750312 45.5308566 -32.88775488 39.84319484 -36.875 34.3125 C-39.15735972 27.19690795 -39.10551854 18.64428022 -35.96484375 11.76953125 C-28.68310761 -0.77277472 -13.61898404 -6.8327326 0 0 Z " fill="#FEFCFB" transform="translate(252.9375,69)"/>
<path d="M0 0 C10.0962656 0.10804565 19.37995821 3.18104356 26.6875 10.3125 C30.65302825 15.08731973 32.12318656 19.64277647 32.0234375 25.77734375 C30.99408895 33.54533457 26.53416099 39.09228025 20.65234375 43.9375 C13.76793879 48.7552148 5.93815299 48.16608976 -2.171875 46.84765625 C-8.19407739 45.26729568 -12.62726083 42.35646342 -17.3125 38.3125 C-16.67892236 35.65794575 -15.93529436 33.09030845 -15.04296875 30.51171875 C-14.79571045 29.78847412 -14.54845215 29.06522949 -14.29370117 28.32006836 C-14.03177979 27.5544458 -13.7698584 26.78882324 -13.5 26 C-11.04185426 18.75131806 -8.93582322 11.48144702 -7.07421875 4.05859375 C-5.82400799 -0.44857632 -4.45696811 0.10983449 0 0 Z " fill="#EB5E32" transform="translate(77.3125,383.6875)"/>
<path d="M0 0 C4.53767449 1.64448053 7.22111764 3.90469668 10 7.8125 C10.33 8.534375 10.66 9.25625 11 10 C9.76055724 10.86941494 8.50792941 11.72005457 7.25 12.5625 C6.55390625 13.03816406 5.8578125 13.51382812 5.140625 14.00390625 C3 15 3 15 0.859375 14.71484375 C-1 14 -1 14 -3 13 C-8.01497132 12.3845165 -8.01497132 12.3845165 -12.4934082 14.06640625 C-14.65854061 16.84518581 -15.27863141 19.90141537 -16.078125 23.265625 C-16.25382019 23.97724792 -16.42951538 24.68887085 -16.61053467 25.42205811 C-16.97878104 26.92704533 -17.34155269 28.43338126 -17.69921875 29.94091797 C-18.2457424 32.23215053 -18.81689923 34.51622888 -19.390625 36.80078125 C-19.74630432 38.26786326 -20.10051842 39.73530144 -20.453125 41.203125 C-20.62386536 41.87941956 -20.79460571 42.55571411 -20.97052002 43.25250244 C-22.02116666 47.79171758 -22.0111776 51.45606485 -21 56 C-19.5 58.16666667 -19.5 58.16666667 -17 59 C-13.41666667 59.08333333 -13.41666667 59.08333333 -10 58 C-9.505 57.319375 -9.01 56.63875 -8.5 55.9375 C-7.7575 54.9784375 -7.7575 54.9784375 -7 54 C-2.44551506 53.49394612 0.88733277 54.00597952 5 56 C4.54262693 60.91676052 3.55194098 63.53685755 0 67 C-5.26507034 70.91119511 -9.98175956 72.80291572 -16.58203125 72.4140625 C-23.25979371 71.27053613 -27.70450013 68.00221994 -31.8125 62.7109375 C-35.52687987 57.35929808 -35.50457429 52.33920723 -35 46 C-34.14043256 41.28456044 -33.04523846 36.65530271 -31.85668945 32.01318359 C-31.31284666 29.87636206 -30.79707619 27.73404467 -30.28320312 25.58984375 C-27.73182505 15.25458256 -24.78614149 7.44317043 -16 1 C-11.31631471 -1.34184264 -5.08012977 -0.49521528 0 0 Z " fill="#FEF9F8" transform="translate(279,372)"/>
<path d="M0 0 C6.10940467 2.07283373 10.52925176 6.62034023 14 12 C15.93551035 18.21258218 16.10662624 25.41302738 13.375 31.375 C10.11235356 36.99272574 5.0868601 40.77595496 -1 43 C-7.89777702 43.95221838 -13.2453027 42.92658317 -19 39 C-24.00255315 34.90700197 -27.37377062 29.97877051 -28.38671875 23.54296875 C-28.68810675 16.7773277 -26.97564845 11.39085521 -22.48828125 6.27734375 C-21 5 -21 5 -19 5 C-17.53765659 7.01558172 -16.22694752 9.00283235 -14.9375 11.125 C-14.39125977 11.97964844 -14.39125977 11.97964844 -13.83398438 12.8515625 C-11.55774816 16.55412788 -10.42670265 19.68045625 -10 24 C-6.41672247 25.00217064 -6.41672247 25.00217064 -3 24 C-2.49830585 21.16926564 -2.49830585 21.16926564 -3 18 C-4.39542147 17.06971902 -5.80205872 16.15093143 -7.265625 15.33203125 C-10.90220985 12.53906856 -13.07273592 8.0937276 -15 4 C-15 3.01 -15 2.02 -15 1 C-10.60435109 -1.19782446 -4.79747996 -0.32178219 0 0 Z " fill="#EB5E33" transform="translate(425,282)"/>
<path d="M0 0 C0.78375 0.495 1.5675 0.99 2.375 1.5 C-6.93432203 15.8220339 -6.93432203 15.8220339 -12.625 18.5 C-12.295 20.15 -11.965 21.8 -11.625 23.5 C-6.54598063 24.69741125 -1.43312486 24.85595392 3.75585938 25.10546875 C9.17018053 25.39759026 9.17018053 25.39759026 11.375 26.5 C11.09948598 31.0459814 9.04878005 33.50320544 6.23828125 36.8515625 C0.60133996 41.83854201 -4.98284195 42.07791173 -12.203125 41.91796875 C-18.30610322 41.17251365 -21.60448236 38.41130047 -25.9375 34.3125 C-30.0684152 27.42764134 -31.43775897 20.99539997 -29.609375 13.11328125 C-27.39087298 7.22368661 -23.19575282 3.13386118 -17.8125 0 C-11.85042294 -2.60479095 -5.94722997 -2.46092275 0 0 Z " fill="#EB5E33" transform="translate(327.625,282.5)"/>
<path d="M0 0 C3.57621408 6.12658188 2.61138944 13.53990258 0.875 20.1875 C-1.75687417 27.94783927 -7.16818747 34.4944798 -14 39 C-19.83993694 41.82519361 -25.70238055 44.17162699 -32.25 44.0625 C-34.10625 44.0315625 -34.10625 44.0315625 -36 44 C-34.95998602 31.31182939 -31.97822028 18.19959576 -22.3125 9.1875 C-15.74021492 3.97499804 -8.66893572 -1.1558581 0 0 Z " fill="#EB5D32" transform="translate(110,329)"/>
<path d="M0 0 C4.62 0 9.24 0 14 0 C13.40136986 10.02189429 10.9347305 19.57720451 8.625 29.3125 C8.22076953 31.03567025 7.81711968 32.75897681 7.4140625 34.48242188 C6.63684264 37.80463048 5.85320753 41.12523351 5.06591797 44.44506836 C4.39295951 47.29494492 3.74302214 50.14762282 3.12548828 53.01000977 C2.74626221 54.74915649 2.74626221 54.74915649 2.359375 56.5234375 C2.15022461 57.5139209 1.94107422 58.5044043 1.72558594 59.52490234 C0.61082117 63.3275555 -0.67488574 64.86242655 -4 67 C-6.5625 67.5625 -6.5625 67.5625 -9 67 C-11.3125 65.5 -11.3125 65.5 -13 63 C-13.51721649 56.26097336 -12.10692008 50.37741721 -10.4375 43.875 C-9.89073371 41.67607764 -9.34521977 39.47684361 -8.80078125 37.27734375 C-8.51025879 36.11187012 -8.21973633 34.94639648 -7.92041016 33.74560547 C-6.26052092 26.99069284 -4.69706232 20.21328438 -3.125 13.4375 C-2.811886 12.09160656 -2.49865636 10.74574001 -2.18530273 9.39990234 C-1.45605468 6.26679087 -0.72790204 3.13342446 0 0 Z " fill="#EB5F34" transform="translate(388,364)"/>
<path d="M0 0 C4.79379726 1.15978966 4.79379726 1.15978966 6.875 3.9375 C8.4950602 11.831067 5.61061095 20.19630308 3.5625 27.75 C3.25376953 28.95076172 2.94503906 30.15152344 2.62695312 31.38867188 C-0.53858902 43.35108902 -0.53858902 43.35108902 -4.125 46.9375 C-8.36584775 47.46222964 -11.95036325 47.62509225 -15.6875 45.4375 C-19.75462502 38.3642391 -15.88566907 28.66680478 -13.98168945 21.30908203 C-13.4364281 19.18332108 -12.92187986 17.05155213 -12.40820312 14.91796875 C-12.06174126 13.55421734 -11.71349526 12.19091768 -11.36328125 10.828125 C-11.05430908 9.60125977 -10.74533691 8.37439453 -10.42700195 7.11035156 C-8.48589828 2.38007155 -5.35072871 -0.91277137 0 0 Z " fill="#EB5E33" transform="translate(250.125,273.0625)"/>
<path d="M0 0 C3.4375 1.9375 3.4375 1.9375 6 5 C5.7228397 12.93167578 3.59400328 20.57602453 1.6875 28.25 C1.39166016 29.50296875 1.09582031 30.7559375 0.79101562 32.046875 C0.49259766 33.2534375 0.19417969 34.46 -0.11328125 35.703125 C-0.37923096 36.79270508 -0.64518066 37.88228516 -0.91918945 39.00488281 C-2.12778741 42.35412151 -3.53290806 44.44357687 -6 47 C-9.4375 48.0625 -9.4375 48.0625 -13 48 C-15.80189446 46.23358828 -17.51524911 44.96950178 -19 42 C-19.40622115 36.80505648 -18.21307595 32.47837173 -16.75 27.5625 C-16.28651375 25.9691121 -15.8242953 24.37535493 -15.36328125 22.78125 C-15.13205566 21.98460937 -14.90083008 21.18796875 -14.66259766 20.3671875 C-14.03309774 18.11824454 -13.46253631 15.8645813 -12.91796875 13.59375 C-12.75135742 12.9123999 -12.58474609 12.2310498 -12.41308594 11.52905273 C-11.96316375 9.66861989 -11.52611027 7.80508859 -11.08984375 5.94140625 C-9.0647331 0.47578503 -5.62504693 -0.90000751 0 0 Z " fill="#EB5E33" transform="translate(169,273)"/>
<path d="M0 0 C7.87160438 1.16138425 13.68482786 4.15297044 20 9 C20.99 10.485 20.99 10.485 22 12 C21.51144531 12.37769531 21.02289063 12.75539062 20.51953125 13.14453125 C18.41899097 15.70945833 18.63289534 17.40702024 18.6875 20.6875 C18.69330078 22.17830078 18.69330078 22.17830078 18.69921875 23.69921875 C19.05865291 27.64365855 19.96109907 31.17965914 21 35 C18.04550087 36.6735337 15.0857982 38.33763985 12.125 40 C11.28324219 40.47695313 10.44148438 40.95390625 9.57421875 41.4453125 C8.36572266 42.12207031 8.36572266 42.12207031 7.1328125 42.8125 C6.38918457 43.23144531 5.64555664 43.65039062 4.87939453 44.08203125 C3 45 3 45 1 45 C0.71133798 40.57384901 1.12194562 37.23120922 2.5 33 C3.82464125 28.85576523 4.53748335 25.3894474 4 21 C1.74858601 18.02256001 -0.6550744 17.2758888 -4.1875 16.3125 C-5.08855469 16.06113281 -5.98960937 15.80976563 -6.91796875 15.55078125 C-7.60503906 15.36902344 -8.29210937 15.18726563 -9 15 C-9.140625 12.65625 -9.140625 12.65625 -9 10 C-6.75 7.5 -6.75 7.5 -4 5 C-2.64444707 3.35135455 -1.30368347 1.68996005 0 0 Z " fill="#EB5F34" transform="translate(379,239)"/>
<path d="M0 0 C1.26457031 0.22623047 1.26457031 0.22623047 2.5546875 0.45703125 C4.86187643 0.82063585 7.18206108 1.10925509 9.5078125 1.32421875 C19.14089965 2.29168863 19.14089965 2.29168863 21.69140625 4.39453125 C22.6875 6 22.6875 6 24 9 C24.99 9.66 25.98 10.32 27 11 C27.6875 14.125 27.6875 14.125 28 17 C14.16426757 16.39663723 14.16426757 16.39663723 8 13 C6.3603125 12.195625 6.3603125 12.195625 4.6875 11.375 C0.95803019 8.07918947 0.59529159 4.80338734 0 0 Z " fill="#EB6339" transform="translate(346,269)"/>
<path d="M0 0 C2.4375 1.625 2.4375 1.625 4 4 C4.3125 7.6875 4.3125 7.6875 4 11 C3 12 3 12 -0.59765625 12.09765625 C-2.08596867 12.0909822 -3.57426432 12.07902183 -5.0625 12.0625 C-6.20041992 12.05573242 -6.20041992 12.05573242 -7.36132812 12.04882812 C-9.24091871 12.0370068 -11.12046899 12.01907078 -13 12 C-12.81203883 4.0031068 -12.81203883 4.0031068 -9.875 0.375 C-6.05132004 -1.4537165 -4.03944709 -1.17511188 0 0 Z " fill="#EB5F34" transform="translate(448,384)"/>
<path d="M0 0 C3 2.125 3 2.125 5 5 C5.375 8.25 5.375 8.25 5 11 C4 12 4 12 0.18359375 12.09765625 C-1.39846682 12.09098089 -2.98051159 12.07901875 -4.5625 12.0625 C-5.36880859 12.05798828 -6.17511719 12.05347656 -7.00585938 12.04882812 C-9.00393756 12.03700518 -11.00197783 12.01906914 -13 12 C-12.1953125 4.3125 -12.1953125 4.3125 -10.4375 1.5 C-6.99044756 -0.62126304 -3.87338545 -0.88205807 0 0 Z " fill="#EB6136" transform="translate(346,384)"/>
<path d="M0 0 C1.44375 0.61875 2.8875 1.2375 4.375 1.875 C9.5009996 3.94004555 14.55709777 5.11987113 20 6 C17.06495074 9.04928771 14.08661478 11.7000673 10 13 C6.75781186 12.7474289 4.14023076 11.96622485 1 11 C0.67 7.37 0.34 3.74 0 0 Z " fill="#EB6339" transform="translate(349,284)"/>
<path d="M0 0 C1.51400391 0.01740234 1.51400391 0.01740234 3.05859375 0.03515625 C4.07050781 0.04417969 5.08242187 0.05320312 6.125 0.0625 C7.29869141 0.07990234 7.29869141 0.07990234 8.49609375 0.09765625 C8.35559857 1.57733949 8.20854549 3.05640141 8.05859375 4.53515625 C7.97738281 5.35886719 7.89617187 6.18257813 7.8125 7.03125 C7.49609375 9.09765625 7.49609375 9.09765625 6.49609375 10.09765625 C4.47645176 10.17009678 2.45442251 10.18142813 0.43359375 10.16015625 C-0.67113281 10.15113281 -1.77585938 10.14210938 -2.9140625 10.1328125 C-4.19603516 10.11541016 -4.19603516 10.11541016 -5.50390625 10.09765625 C-5.19592299 8.61754254 -4.88238825 7.138583 -4.56640625 5.66015625 C-4.39238281 4.83644531 -4.21835938 4.01273437 -4.0390625 3.1640625 C-3.26793466 0.18649587 -3.14211283 0.1225473 0 0 Z " fill="#FEFAF8" transform="translate(144.50390625,354.90234375)"/>
<path d="M0 0 C0.33 0.66 0.66 1.32 1 2 C0.113125 2.66 -0.77375 3.32 -1.6875 4 C-5.42023803 7.07662731 -7.65550011 10.81932099 -10 15 C-13.46941546 14.54177532 -16.67395049 14.10868317 -20 13 C-20 12.34 -20 11.68 -20 11 C-13.4 7.37 -6.8 3.74 0 0 Z " fill="#EC6940" transform="translate(401,278)"/>
<path d="M0 0 C3.16115776 1.36983503 3.9927092 1.9890638 6 5 C6 6.32 6 7.64 6 9 C3.29816945 10.35091528 0.88191794 10.33858058 -2.125 10.5625 C-3.22070312 10.64628906 -4.31640625 10.73007812 -5.4453125 10.81640625 C-6.28835938 10.87699219 -7.13140625 10.93757813 -8 11 C-7.04454634 9.53977837 -6.08553322 8.08188532 -5.125 6.625 C-4.59132813 5.81289063 -4.05765625 5.00078125 -3.5078125 4.1640625 C-2 2 -2 2 0 0 Z " fill="#EC653C" transform="translate(333,288)"/>
<path d="M0 0 C2.1519437 3.22791555 2.20086443 4.28400809 2 8 C0.2925002 6.71937515 -1.37373596 5.38232443 -3 4 C-3 3.34 -3 2.68 -3 2 C-2.01 1.34 -1.02 0.68 0 0 Z " fill="#ED734E" transform="translate(342,278)"/>
</svg>
